<svg width="914" height="410" viewBox="0 0 914 410" fill="none" xmlns="http://www.w3.org/2000/svg">
<path d="M469.823 109.311C473.209 104.805 475.619 101.1 479.574 95.5341C480.014 94.9726 480.371 94.3879 481.769 92.946C482.589 92.2602 483.23 91.0959 487.147 89.3799C489.224 88.5315 493.064 87.7431 497.087 89.0954C500.883 90.331 503.214 92.907 504.076 94.0335C504.618 94.7288 505.026 95.3729 505.355 95.9579C505.612 96.4158 505.816 96.83 505.992 97.2195C506.166 97.6064 506.313 97.9739 506.433 98.2982C506.531 98.5631 506.616 98.8136 506.692 99.0524C507.01 100.067 507.127 100.628 507.253 101.235C507.468 102.314 507.562 103.069 507.647 103.784C507.938 106.442 508.004 108.308 508.102 110.248C508.274 114.038 508.395 117.613 508.55 121.112C508.849 128.151 509.244 134.966 509.721 141.921C512.24 175.072 515.638 209.6 518.417 249.387C518.826 253.92 519.323 257.995 519.889 261.26C520.337 264.4 521.468 267.285 520.655 266.245C520.118 265.662 518.252 263.275 514.16 261.866C510.04 260.448 506.392 261.373 505.374 261.894C504.202 262.457 504.424 262.656 504.871 262.495C505.334 262.353 506.128 261.908 506.976 261.329C510.502 258.897 514.603 254.858 518.42 250.675C526.153 242.152 533.46 232.401 542.181 219.086C545.085 214.667 548.097 209.979 551.426 204.754C553.078 202.166 554.819 199.421 556.731 196.489C558.96 193.375 559.691 190.999 565.495 185.191C566.814 184.253 567.311 182.745 573.421 180.642C576.364 179.524 583.454 179.876 587.363 182.889C591.22 185.633 592.313 188.015 593.156 189.502C594.65 192.554 594.853 193.979 595.204 195.373C595.499 196.72 595.667 197.804 595.809 198.82C595.9 199.461 595.988 200.099 596.073 200.742C596.928 207.159 597.395 213.52 597.709 219.593C597.869 222.626 597.99 225.6 598.146 228.286C598.224 229.617 598.316 230.894 598.421 231.841C598.472 232.316 598.531 232.703 598.555 232.823C598.565 232.88 598.566 232.861 598.519 232.681C598.465 232.494 598.38 232.138 598.044 231.365C597.707 230.628 597.188 229.502 595.94 227.965C594.708 226.424 592.379 224.431 589.572 223.389C583.627 221.308 580.171 222.922 578.857 223.315C577.303 223.925 576.783 224.315 576.373 224.568C575.963 224.841 575.821 224.961 575.71 225.049C575.52 225.207 575.595 225.153 575.709 225.042C575.836 224.92 576.013 224.742 576.236 224.506C577.089 223.604 578.227 222.264 579.325 220.912C581.552 218.17 583.871 215.116 586.106 212.123C590.628 206.052 595.032 199.916 599.388 193.789C625.979 156.111 649.06 123.138 659.704 103.505C673.988 77.0397 683.11 74.7528 701.645 47.6163C704.653 43.2214 707.952 38.1116 711.539 32.2222C714.553 27.2785 717.47 22.5862 720.379 18.0772C721.846 15.8074 723.275 13.6308 724.834 11.3751C725.609 10.2571 726.391 9.14614 727.353 7.89021C727.828 7.27574 728.346 6.60765 729.155 5.71652C729.583 5.25837 730.042 4.7424 731.064 3.89431C731.587 3.48041 732.223 2.95023 733.6 2.23253C734.808 1.55372 737.418 0.776168 739.272 0.793021C740.072 0.779386 741.511 0.78262 743.403 1.36419C745.243 1.904 747.229 3.1505 748.396 4.30911C749.712 5.60521 750.209 6.43545 750.738 7.34137C751.129 8.03858 751.414 8.70482 751.604 9.21148C752.274 11.1006 752.312 11.8071 752.442 12.5218C752.633 13.8424 752.669 14.6272 752.714 15.3927C752.788 16.8982 752.794 18.0841 752.795 19.2844C752.789 21.662 752.726 23.8852 752.649 26.0413C752.492 30.3351 752.257 34.5409 751.989 38.6121C751.447 46.8096 750.756 54.6647 749.942 62.724C748.611 75.8003 746.955 89.1394 744.981 103.985C741.365 131.381 735.426 195.096 731.977 250.205C730.874 267.926 729.829 289.648 730.18 298.326L729.379 297.108C733.297 300.789 743.945 302.28 750.272 302.826C759.762 303.618 769.738 304.193 779.814 304.855L779.17 304.835C818.709 304.301 859.057 307.75 885.411 308.493C895.743 308.776 903.877 309.269 910.117 309.823C912.759 310.058 913.991 310.627 914.002 311.21C914.002 311.21 914.002 311.21 914.002 311.211C914.014 311.937 912.134 312.685 908.748 312.837C892.29 313.578 867.735 315.203 838.694 318.322C811.732 321.213 796.656 321.32 779.303 321.051C779.184 321.05 778.826 321.044 778.707 321.033C771.347 320.34 763.65 319.503 754.376 318.169C749.733 317.482 744.699 316.692 739.048 315.398C733.387 313.696 726.979 313.563 719.075 305.825C718.844 305.541 718.254 304.669 718.097 304.338C716.226 299.849 716.924 298.86 716.693 297.156C716.641 295.601 716.63 294.156 716.627 292.659C716.622 289.71 716.655 286.699 716.691 283.578C716.85 271.387 717.049 260.15 717.197 249.306C718.005 194.542 717.828 151.863 725.062 80.307C725.736 73.6069 726.276 67.3093 726.702 61.327C727.374 51.8744 727.763 43.3248 727.927 35.2414C728.006 31.2242 728.032 27.2876 727.969 23.5964C727.937 21.7386 727.885 19.9095 727.781 18.259C727.73 17.4699 727.661 16.6669 727.578 16.2278C727.558 16.1156 727.538 16.0479 727.523 16.0404C727.51 16.0383 727.499 16.1076 727.534 16.3815C727.623 16.7505 727.524 17.0656 728.355 18.9722C728.775 19.7859 729.569 21.6245 732.216 23.6258C734.973 25.7703 738.855 26.1484 739.87 26.056C741.205 26.0709 743.29 25.6045 744.445 25.0642C744.992 24.829 745.459 24.5777 745.815 24.366C746.132 24.1777 746.398 24.0004 746.619 23.8429C747.373 23.296 747.548 23.101 747.653 23.0267C747.84 22.8759 747.671 23.1011 747.529 23.3304C747.192 23.8427 746.715 24.5778 746.242 25.3323C745.282 26.8594 744.26 28.5469 743.264 30.2226C741.276 33.5714 739.262 37.0564 737.236 40.5763C733.166 47.6482 729.047 54.8654 724.436 62.6613C710.726 85.8638 693.214 113.393 663.413 152.855C646.352 175.423 633.441 193.721 622.666 209.731C617.669 217.139 613.181 223.963 608.729 230.609C606.503 233.923 604.299 237.189 601.908 240.486C600.691 242.148 599.444 243.831 597.78 245.746C596.897 246.729 596.081 247.7 594.237 249.206C593.196 249.926 592.396 250.959 588.424 252.298C586.393 252.891 582.027 253.79 577.002 251.225C572.129 248.559 570.716 245.147 570.01 243.746C567.862 238.537 568.031 237.027 567.569 234.867C567.246 232.893 567.022 231.174 566.807 229.53C566.385 226.252 566.019 223.22 565.611 220.247C564.801 214.301 563.85 208.594 562.564 202.93C562.46 202.58 562.348 202.307 562.29 202.342C562.281 202.437 562.086 202.583 562.904 204.557C563.442 205.568 563.963 207.299 567.318 210.162C570.457 213.242 578.443 214.695 581.762 213.54C585.333 212.666 586.4 211.736 587.189 211.3C587.917 210.829 588.151 210.64 588.279 210.572C588.389 210.515 588.548 210.402 588.635 210.353C588.727 210.3 588.761 210.304 588.751 210.362C588.73 210.479 588.556 210.794 588.342 211.185C587.899 211.986 587.313 213.046 586.699 214.178C585.47 216.447 584.154 218.948 582.77 221.58C580.044 226.784 577.1 232.432 573.95 238.386C565.998 252.734 558.598 269.167 540.482 289.841C536.437 293.926 532.568 298.385 523.317 302.972C518.693 305.085 510.886 307.75 501.116 305.231C491.345 302.637 485.42 295.948 482.471 291.452C471.298 270.761 472.962 260.891 471.048 247.829C469.956 235.426 469.625 223.408 469.548 211.417C469.428 187.498 470.498 163.795 471.606 141.027C471.942 133.958 472.275 127.064 472.533 120.322C472.66 116.96 472.77 113.629 472.799 110.668C472.819 109.268 472.777 107.714 472.789 107.491C472.794 107.486 472.801 107.509 472.825 107.623C472.849 107.738 472.877 107.894 472.965 108.273C473.047 108.605 473.183 109.212 473.554 110.24C474.162 111.467 474.164 113.189 478.394 117.628C479.662 118.851 481.343 120.137 483.411 121.167C485.603 122.283 488.478 123.099 491.091 123.26C496.27 123.608 500 121.965 501.705 121.096C505.528 118.974 505.933 118.075 506.647 117.451C507.207 116.86 507.395 116.601 507.501 116.465C507.606 116.324 507.603 116.314 507.563 116.36C494.186 135.406 478.796 156.985 465.942 174.766C450.325 196.441 436.702 215.688 426.389 230.97C403.358 264.952 376.529 305.637 344.543 349.162C337.7 358.36 330.759 367.6 323.427 377.002C319.768 381.684 315.994 386.447 311.899 391.296C309.815 393.75 307.696 396.203 305.056 398.928C303.708 400.298 302.297 401.727 300.056 403.551C297.743 404.946 294.934 409.109 283.852 409.675C274.813 409.756 267.088 403.727 263.999 398.629C262.82 396.912 261.524 394.07 261.009 392.231C260.438 390.319 260.223 388.976 260.054 387.844C259.749 385.641 259.683 384.153 259.617 382.738C259.508 379.959 259.519 377.614 259.538 375.272C259.714 359.168 261.791 344.431 263.846 329.684C265.848 315.841 268.033 301.66 270.279 287.219C280.609 221.536 291.692 149.048 303.509 78.2669C304.956 69.5381 306.383 60.9874 307.78 52.4431C308.469 48.2219 309.167 43.9062 309.794 39.7918C310.105 37.7433 310.409 35.6764 310.651 33.8119C310.771 32.8898 310.876 31.9969 310.932 31.409C310.961 31.1439 310.966 30.8952 310.972 31.281C310.997 31.5766 310.928 31.7661 311.198 33.4884C311.237 33.7129 311.285 33.9595 311.345 34.2319C311.409 34.5236 311.517 34.9635 311.647 35.4026C311.785 35.8647 311.929 36.3076 312.183 36.9486C312.477 37.6862 312.865 38.5249 313.406 39.4436C314.468 41.2784 316.897 44.51 321.055 46.5696C325.072 48.5682 328.546 48.5195 329.659 48.5045C331.608 48.5442 335.144 47.7127 336.833 46.8348C337.669 46.4448 338.293 46.0849 338.847 45.7341C339.291 45.4517 339.65 45.1964 339.958 44.9639C341.03 44.1362 341.28 43.8329 341.492 43.6293C341.84 43.265 341.74 43.3443 341.645 43.451C341.416 43.6994 340.995 44.2016 340.568 44.7268C339.698 45.7978 338.734 47.0324 337.779 48.2651C335.832 50.7838 333.905 53.3177 331.942 55.9031C328.03 61.0579 324.133 66.2094 320.197 71.381C317.717 74.6382 315.201 77.9499 312.604 81.3776C275.968 129.661 232.833 187.448 192.185 238.4C173.809 260.819 157.298 282.266 136.675 299.106C134.726 300.626 132.774 302.111 130.523 303.619C128.236 304.992 125.766 307.159 120.247 307.918C118.564 308.091 114.547 308.321 110.923 305.451C107.554 302.604 107.013 299.943 106.517 298.263C105.627 294.29 106.037 292.106 106.15 290.016C106.333 287.93 106.575 286.101 106.832 284.259C107.347 280.625 107.92 277.191 108.486 273.9C109.632 267.269 110.772 261.207 111.857 255.531C111.948 255.057 112.04 254.582 112.132 254.104C123.155 197.671 128.12 174.16 133.543 133.942C135.017 121.909 137.111 107.97 137.24 92.2919C137.218 91.1378 137.164 90.0059 137.08 88.8004C137.014 87.0409 136.597 85.1663 136.661 85.6318C136.703 85.7319 136.841 85.9316 136.966 86.0499C137.091 86.1732 137.167 86.2106 137.113 86.1921C137.011 86.1491 136.461 85.9809 135.76 85.8757C129.603 85.0437 121.435 85.3861 114.048 86.4756C95.6061 89.0182 77.0749 93.5649 59.4156 101.85C44.5339 108.691 29.7129 115.369 15.6314 121.624C-6.32421 131.647 -3.02096 126.676 17.9264 113.973C31.2308 105.989 43.8439 99.2547 55.0572 93.2682C70.0162 85.2479 83.6856 80.6345 93.8131 76.5276C100.232 73.9045 106.13 71.9143 111.454 70.1704C120.966 67.495 128.256 65.8712 139.122 66.7027C140.754 66.9259 142.637 67.2074 145.307 68.3289C147.88 69.3423 151.715 72.1045 153.739 75.6171C157.51 82.7891 156.591 85.5372 157.019 87.873C157.822 102.926 155.081 116.037 151.006 134.87C150.89 135.381 150.775 135.896 150.661 136.414C140.589 180.824 145.161 203.357 140.056 229.549C137.965 240.206 135.909 246.397 133.133 258.787C132.166 263.136 131.114 268.213 130.01 274.478C129.462 277.604 128.897 281.03 128.389 284.71C128.138 286.534 127.897 288.459 127.734 290.256C127.653 291.145 127.593 292.041 127.579 292.662C127.571 292.971 127.577 293.206 127.575 293.23C127.574 293.242 127.568 293.193 127.549 293.086C127.53 292.98 127.491 292.805 127.461 292.704C127.285 292.457 127.362 290.987 124.426 288.409C122.983 287.209 120.946 286.472 119.722 286.312C118.456 286.127 117.868 286.23 117.649 286.248C117.368 286.275 116.769 286.415 116.519 286.512C116.244 286.61 116.201 286.647 116.285 286.601C116.465 286.512 117.063 286.146 117.714 285.684C119.056 284.739 120.717 283.412 122.432 281.969C135.043 271.376 149.97 252.047 168.162 226.878C169.19 225.446 170.205 224.027 171.252 222.56C221.792 150.721 256.319 98.7427 282.93 60.2119C288.566 52.0071 293.77 44.4579 298.73 37.3344C301.196 33.7944 303.622 30.3278 306.03 26.9519C307.238 25.261 308.45 23.5754 309.754 21.8279C310.431 20.9261 311.089 20.052 311.988 18.9437C312.428 18.4083 312.938 17.7791 313.838 16.8233C314.092 16.5575 314.31 16.3308 314.708 15.9473C314.894 15.7691 315.089 15.5863 315.309 15.3893C315.577 15.1488 315.872 14.8946 316.205 14.6248C316.923 14.0643 317.807 13.3189 319.847 12.2413C321.655 11.1768 326.099 9.89062 328.802 9.9562C329.88 9.94894 332.051 9.89183 335.207 10.8379C338.228 11.6554 342.036 14.1584 343.758 16.0811C344.754 17.1035 345.632 18.2684 346.203 19.16C346.716 19.9534 347.129 20.7125 347.467 21.419C348.187 22.9545 348.415 23.729 348.671 24.5634C349.505 27.6639 349.417 28.481 349.525 29.5194C349.622 31.1813 349.578 32.0415 349.56 32.7726C349.507 34.2442 349.421 35.2856 349.34 36.272C349.169 38.2531 348.986 39.9225 348.8 41.5685C347.358 53.8763 344.951 68.1556 342.048 84.6212C332.093 140.636 316.207 218.823 307.348 283.509C306.95 286.439 306.52 289.573 306.098 292.669C303.114 316.183 297.927 346.691 297.439 375.3C297.445 377.301 297.472 379.316 297.553 380.885C297.588 381.637 297.662 382.348 297.665 382.308C297.656 382.27 297.644 382.009 297.393 381.15C297.195 380.365 296.359 378.522 295.779 377.705C294.469 375.403 289.844 371.515 284.178 371.58C280.819 371.526 278.1 372.714 277.224 373.197C276.207 373.748 276.069 373.92 276.048 373.921C276.081 373.9 276.773 373.274 277.459 372.557C278.918 371.048 280.625 369.09 282.347 367.04C285.801 362.921 289.342 358.435 292.876 353.888C299.903 344.831 306.915 335.492 313.858 326.173C347.078 281.014 377.074 236.163 394.213 209.319C413.297 179.207 423.787 165.322 434.157 152.965C443.937 141.263 453.6 131.002 469.823 109.311Z" fill="#A6A6A6" fill-opacity="0.78"/>
</svg>
