<svg width="1280" height="1007" viewBox="0 0 1280 1007" fill="none" xmlns="http://www.w3.org/2000/svg">
<path d="M-15.8425 235.199C-17.5249 238.504 -25.1995 251.333 -28.3329 256.983C-26.0807 249.779 -9.77161 223.296 -15.8425 235.199ZM379.966 208.004C381.898 202.456 383.722 196.999 385.541 191.389C379.195 206.68 370.483 227.096 363.314 240.865C362.157 243.101 363.975 236.729 361.326 242.052C358.648 247.37 360.586 247.063 356.77 254.924C352.848 263.806 329.504 302.587 320.203 315.628C317.259 320.043 314.245 324.427 311.227 328.695C309.699 330.855 308.195 332.951 306.786 334.909C306.13 335.823 305.427 336.8 305.009 337.398C304.905 337.546 304.832 337.652 304.8 337.701C304.763 337.756 304.779 337.739 304.91 337.547C304.984 337.437 305.038 337.361 305.225 337.073C305.421 336.771 305.693 336.345 306.096 335.669C306.585 334.783 306.7 334.844 308.531 331.042C309.351 329.217 310.455 326.858 311.741 322.187C312.058 321.007 312.379 319.663 312.676 318.086C313.043 316.038 314.416 308.874 313.036 299.602C311.88 290.386 306.228 275.293 293.702 265.003C281.296 254.553 267.326 252.051 259.1 251.918C246.636 251.819 240.398 254.901 237.018 256.257C233.591 257.817 232.303 258.712 231.492 259.205C230.699 259.714 230.529 259.848 230.532 259.837C230.548 259.82 230.778 259.642 231.095 259.389C232.462 258.307 234.932 256.278 237.391 254.291C242.409 250.227 247.9 245.944 253.333 241.929C264.241 233.857 275.345 226.423 286.409 219.526C304.44 208.302 322.242 197.832 340.271 187.67C292.288 217.104 341.796 189.354 355.189 181.212C358.209 179.448 356.03 176.868 405.751 150.235C437 133.873 411.034 152.036 459.575 124.644C460.61 124.074 461.671 123.489 462.758 122.891C461.592 123.395 460.478 123.877 459.418 124.337C436.249 134.442 442.531 130.536 458.31 122.169C468.191 116.964 481.905 110.208 494.744 104.322C500.436 101.375 549.981 80.5618 576.772 74.507C585.407 72.2542 599.269 67.7886 612.938 66.4951C613.19 66.4703 613.442 66.4466 613.693 66.4238C624.04 65.6833 630.356 65.8805 647.336 67.472C651.128 67.9079 655.178 68.4814 660.306 69.6667C668.148 71.5909 682.046 75.4672 695.638 88.534C709.163 101.781 713.622 116.441 715.588 124.254C721.302 150.325 717.573 167.923 712.198 185.47C701.452 215.133 689.058 226.623 679.573 239.325C669.608 251.564 659.875 262.646 650.063 273.65C659.599 259.19 651.842 267.898 643.784 277.33C638.506 283.51 633.121 289.957 632.46 290.579C627.537 295.114 637.074 284.009 643.099 276.721C647.548 271.352 650.087 268.142 644.186 274.39C643.648 275.001 643.106 275.618 642.558 276.24C624.134 297.144 605.575 317.557 586.81 337.854C603.073 321.136 568.185 362.669 560.3 368.978C566.078 368.481 468.35 459.817 454.469 474.646C451.605 477.782 472.599 459.579 426.282 504.174C421.249 508.988 422.393 506.394 419.843 509.029C419.816 509.056 419.788 509.086 419.758 509.12C418.091 510.986 410.998 522.389 399.783 530.725C395.594 533.784 417.803 509.484 366.369 560.129C389.55 542.837 295.18 630.352 277.233 645.646C280.975 642.776 284.776 639.848 288.51 636.979C270.61 652.035 268.33 655.718 264.422 659.278C248.744 673.542 226.581 692.503 212.219 705.924C195.328 721.704 196.751 723.264 176.433 740.893C181.443 736.906 186.414 732.953 191.438 728.951C177.71 741.47 164.066 753.894 150.366 766.4C177.601 737.751 148.841 767.079 142.272 773.703C141.679 774.299 141.26 774.716 141.061 774.908C137.16 778.665 142.02 772.589 135.591 778.757C134.961 779.384 136.564 779.329 126.585 788.852C105.865 808.769 108.371 804.64 99.8056 812.974C99.1195 813.708 102.107 811.91 88.3816 826.092C54.9791 863.934 85.1985 827.561 89.6293 823.568C92.0748 821.104 72.502 833.995 113.533 796.296C99.5748 808.997 97.1978 808.941 95.5926 810.428C93.9696 811.758 72.3688 834.235 72.4407 834.755C70.4922 837.21 70.0269 838.137 69.8971 838.623C69.8096 839.065 70.0305 839.137 70.3246 839.094C70.898 839.019 72.2536 837.95 71.74 838.744C71.6327 838.918 71.0632 839.59 70.7162 839.996C70.5667 840.159 70.4573 840.313 70.875 839.639C71.2658 838.61 72.4575 838.444 75.5327 828.723C76.3413 825.563 77.638 821.078 77.4636 812.656C78.0104 807.351 73.3257 782.732 54.9127 770.641C50.7255 767.661 46.3794 765.5 42.3844 764.031C39.3791 762.944 37.6988 762.514 35.5538 762.017C31.486 761.111 28.0075 760.807 25.066 760.737C19.2325 760.624 15.1703 761.382 12.5671 761.93C6.62998 763.255 3.51032 764.793 2.54977 765.18C1.31205 765.729 0.460109 766.158 -0.204596 766.502C-0.764079 766.794 -1.03909 766.948 -1.34805 767.12C-1.63627 767.282 -1.87333 767.42 -2.03993 767.519C-2.17284 767.598 -2.28067 767.664 -2.36759 767.717C-2.53977 767.823 -2.63673 767.887 -2.65372 767.9C-2.74619 767.969 -2.27789 767.674 -1.80084 767.357C-0.729557 766.645 0.567386 765.745 2.06838 764.674C4.93776 762.624 8.09828 760.262 10.9808 757.982C16.905 753.306 21.831 748.881 23.7918 745.875C32.1718 741.755 30.7673 743.76 24.1712 749.138C20.9308 751.782 16.2194 755.391 11.0138 759.283C8.40534 761.232 5.6417 763.276 2.89565 765.271C1.51905 766.271 0.167929 767.242 -0.953314 768.034C-1.46826 768.399 -2.00591 768.769 -2.0811 768.831C-2.08518 768.845 -2.04773 768.813 -1.22669 768.346C-0.624387 768.021 -0.402131 767.835 1.99476 766.69C2.27888 766.557 2.58895 766.416 2.93139 766.264C3.10263 766.189 3.28199 766.111 3.47048 766.03C3.56472 765.99 3.66126 765.949 3.76021 765.907C3.84992 765.869 4.06375 765.78 4.22568 765.714C5.61891 765.151 7.40245 764.46 10.1987 763.694C11.5357 763.913 19.4761 758.888 39.6312 764.313C45.6951 765.874 58.6534 772.853 65.515 782.465C72.8787 791.723 75.6097 803.772 75.9762 808.286C77.0719 819.457 75.2752 824.797 74.4128 828.411C72.7465 834.093 71.2983 836.337 70.6378 837.574C70.3602 837.977 70.2715 838.036 70.2269 838.028C70.1955 837.996 70.2094 837.893 70.3785 837.511C70.6704 836.537 71.4899 836.21 73.8851 828.264C74.7358 824.587 76.6778 819.121 75.2848 807.252C74.6777 801.567 71.1222 789.066 62.6344 779.853C58.4891 775.169 53.3915 771.28 48.4124 768.625C45.9215 767.287 43.4629 766.229 41.1266 765.404C39.689 764.898 38.4567 764.526 37.1885 764.188C27.0775 761.626 20.6358 762.44 16.2205 763.014C15.1103 763.18 14.1183 763.365 13.2184 763.555C12.6267 763.681 12.2645 763.765 11.8222 763.871C10.9759 764.075 10.2176 764.28 9.5276 764.481C6.82173 765.27 4.9144 766.057 3.8371 766.516C3.00084 766.876 2.33182 767.19 1.76888 767.466C1.21418 767.737 0.727409 767.991 0.392496 768.171C0.130049 768.313 -0.0981988 768.441 -0.298788 768.555C-0.692323 768.78 -1.01517 768.976 -1.18372 769.083C-1.83275 769.503 -1.75185 769.502 -1.55195 769.403C-1.15092 769.212 -0.118791 768.582 0.894721 767.943C3.05737 766.574 5.6536 764.842 8.18347 763.122C13.1257 759.764 17.5616 756.635 18.1549 756.203C54.6726 729.336 32.7467 741.964 39.7283 734.59C43.3296 730.757 59.4709 721.131 44.1514 729.392C77.3344 704.358 58.0339 720.538 60.2602 719.153C63.8047 716.908 74.9498 707.681 76.4472 706.679C78.6908 705.178 71.6976 711.496 80.4237 705.351C81.886 704.313 94.5103 692.993 76.5472 705.543C100.249 688.068 97.5917 688.447 106.937 684.655C120.283 668.547 120.302 678.214 126.994 673.527C144.158 661.519 137.202 661.966 137.921 661.193C138.092 661.018 138.304 660.817 138.554 660.589C146.182 653.587 191.271 621.144 202.248 612.199C199.29 617.876 165.266 640.105 158.124 646.15C135.105 665.709 193.123 621.511 177.624 637.514C184.591 631.076 191.174 624.926 198.154 618.476C212.984 610.082 194.349 625.345 230.368 597.174C235.158 591.16 204.749 616.866 210.197 610.867C213.542 607.235 234.479 591.212 234.64 590.505C234.769 589.703 215.931 604.74 218.473 601.739C224.041 595.202 294.701 544.157 242.245 584.983C257.096 573.746 267.015 570.923 279.059 560.392C286.923 553.522 237.067 584.678 307.792 532.539C310.37 532.794 280.104 554.062 279.367 554.785C278.401 555.756 286.15 554.875 287.205 554.324C290.796 552.42 361.175 496.714 377.504 486.91C370.151 489.579 431.4 445.806 437.533 440.324C439.161 438.857 431.8 442.642 433.575 441.121C444.673 431.66 477.65 409.985 492.29 399.064C508.683 386.835 505.861 387.442 506.781 386.754C514.036 381.388 508.766 386.373 513.172 383.061C519.775 378.089 565.62 343.892 567.752 342.086C568.389 341.542 560.075 346.046 569.924 338.334C571.649 336.986 571.465 339.162 600.595 316.462C635.677 289.138 574.684 333.313 588.434 320.874C612.645 305.799 610.604 304.306 616.85 299.87C618.983 298.361 636.161 288.085 653.526 274.965C641.255 284.539 628.985 294.125 616.774 303.677C629.204 294.827 652.749 276.683 663.064 269.504C668.124 265.98 665.123 270.326 675.71 262.381C677.903 260.727 684.594 250.586 657.588 273.031C654.394 273.576 668.51 264.243 674.314 259.402C675.133 258.711 677.531 253.856 686.301 249.235C688.481 248.098 671.908 269.307 722.269 225.464C723.87 224.07 717.422 227.729 718.974 226.347C719.356 226.008 721.373 224.535 723.83 222.759C728.455 219.413 734.445 215.132 735.341 214.368C736.793 213.125 729.665 217.175 731.373 215.672C739.993 208.06 754.961 201.848 735.263 216.029C741.875 211.739 748.911 207.143 755.575 202.832C746.83 205.632 765.215 194.7 774.327 187.911C831.833 145.176 791.919 171.981 801.333 163.883C816.558 150.878 807.203 163.819 830.247 145.345C832.567 143.57 801.727 162.836 859.739 123.019C851.346 129.036 842.769 135.248 834.573 141.229C840.919 140.126 864.933 119.383 866.935 117.981C889.625 101.835 874.103 113.334 908.721 88.6193C911.922 86.3904 919.466 82.3673 926.838 77.5734C942.713 67.6047 931.355 73.5474 917.289 82.0957C903.271 90.6198 887.017 101.609 885.838 101.707C885.172 101.862 915.47 80.2216 941.651 66.4739C953.532 60.0916 964.012 55.5631 965.104 55.1895C974.489 51.9496 952.492 61.4163 942.259 67.6054C937.122 70.5482 933.726 72.7841 937.11 71.4487C937.519 71.2939 939.603 70.1775 942.747 68.5152C948.542 65.4853 958.081 60.3324 971.743 54.6619C984.572 48.9508 1006.72 43.2843 1018.7 41.3273C1049.69 35.0967 1082.02 31.453 1093.58 30.8237C1122.36 29.0945 1136.1 33.3588 1136.17 28.9436C1144.67 33.1177 1152.3 30.4625 1156.45 30.6945C1163.24 31.085 1169.13 31.5546 1176.13 32.5787C1207.07 38.9248 1219.17 46.3118 1237.73 67.3167C1249.02 82.4621 1249.53 95.4326 1249.76 102.672C1249.73 110.465 1248.77 114.594 1247.95 118.402C1246.2 125.608 1244.48 129.711 1242.83 133.718C1239.49 141.499 1236.2 147.658 1232.15 154.915C1227.8 162.641 1223.05 167.825 1221.72 170.407C1220.95 171.882 1223.75 170.025 1219.78 177.162C1216.13 183.81 1198.94 209.454 1186.66 227.015C1179.55 237.259 1173.8 244.67 1172.58 245.952C1169.59 249.152 1183.08 230.226 1185 225.923C1185.35 225.156 1185.28 224.969 1184.59 225.65C1184.58 225.66 1184.57 225.67 1184.56 225.68C1170.26 247.084 1156.52 265.813 1141.53 284.912C1135.29 292.808 1137.79 288.184 1135.09 291.588C1133.98 293.109 1112.97 320.432 1114.11 319.456C1117.2 318.175 1182.34 231.792 1166.31 255.315C1163.26 260.072 1149.91 274.406 1153.73 273.4C1127.52 307.377 1100.56 339.412 1073.32 371.034C1044.95 403.938 1014.91 436.043 982.827 466.283C974.893 473.777 966.873 480.801 958.853 487.503C966.47 480.641 974.317 473.42 982.241 465.668C1012.88 435.717 1044.35 402.977 1072.34 370.2C1075.49 366.525 1078.64 362.803 1081.73 359.135C1086.75 353.215 1103.77 333.159 1100.77 334.807C1091.53 345.797 1081.64 357.536 1071.49 369.469C1046.97 398.354 1019.73 428.06 995.371 451.247C994.266 452.301 997.466 447.573 993.285 451.453C990.538 453.999 985.844 458.793 980.674 464.027C970.284 474.57 957.958 485.82 954.765 488.078C953.922 488.735 968.595 474.154 963.227 477.55C949.518 486.229 949.798 492.768 939.229 501.149C931.652 507.492 884.714 539.79 867.89 553.351C866.676 554.361 865.776 555.201 865.089 555.929C862.434 558.886 864.331 557.579 868.747 554.499C880.217 546.414 902.335 530.015 900.309 532.662C890.184 540.714 879.999 548.453 869.898 556.04C860.577 563.164 856.488 567.366 850.93 575.874C845.519 584.284 839.85 596.577 834.774 609.391C834.532 610.014 837.756 604.931 834.695 613.01C829.363 627.359 826.456 630.933 823.56 638.033C820.4 645.761 810.475 674.297 808.596 677.913C808.357 678.362 808.938 672.063 809.194 671.213C813.023 658.524 816.477 654.914 816.92 653.75C818.52 649.524 819.271 645.165 820.694 641.393C823.055 635.155 824.978 631.972 828.073 623.948C830.209 618.462 826.877 623.329 828.988 618.002C829.735 615.889 840.777 597.1 838.623 594.405C838.226 593.051 821.701 632.605 804.945 679.881C799.277 694.782 798.601 715.402 800.79 733.992C800.881 734.9 800.993 735.461 800.941 735.197C800.847 734.903 800.762 733.84 799.295 730.537C797.904 727.513 794.093 720.375 785.333 714.514C776.534 708.689 768.863 708.269 769.471 708.258C768.534 708.123 767.049 708.018 766.009 708.024C764.922 708.024 764.236 708.081 763.816 708.118C763.016 708.199 763.254 708.176 763.648 708.065C764.507 707.846 766.026 707.385 766.81 707.099C764.969 707.564 763.352 707.857 763.228 707.799C763.182 707.777 763.59 707.649 764.793 707.545C765.917 707.429 768.215 707.469 769.554 707.633C768.724 707.418 779.995 708.795 788.75 716.047C797.323 723.077 799.551 729.056 800.713 731.505C801.805 734.174 801.887 734.894 801.985 735.049C802.05 735.171 801.999 734.641 801.963 733.867C801.728 730.946 801.553 728.274 801.435 725.651C801.536 728.236 801.729 730.913 802.009 733.863C802.069 734.636 802.153 735.165 802.121 735.018C802.054 734.839 802.014 734.075 800.911 731.282C799.75 728.721 797.386 722.487 788.642 715.422C779.721 708.19 768.833 706.92 769.632 707.043C768.282 706.832 765.994 706.74 764.834 706.806C763.599 706.86 763.119 706.945 763.079 706.936C763.029 706.93 764.367 706.621 765.86 706.185C768.918 705.309 772.812 704.035 776.134 702.99C782.813 700.88 787.942 699.509 789.225 700.426C812.186 691.815 836.038 682.009 859.786 672.199C949.862 634.51 1040.65 593.62 1131.45 553.733C1152.07 544.968 1141.79 552.137 1175.3 536.635C1166.14 539.801 1157.26 542.864 1148.16 546.034C1154.55 543.43 1168.83 537.411 1184.98 530.626C1213.43 518.559 1248.7 504.447 1257.66 500.937C1258.5 500.59 1259.43 499.625 1262.83 497.779C1266.74 495.924 1270.55 493.172 1287.46 488.997C1291.2 488.214 1295.23 487.396 1301.81 487.199C1307.66 486.773 1320.4 488.714 1327.71 492.523C1342.3 499.127 1350.05 511.58 1352.68 517.691C1354.34 521.378 1355.08 523.889 1355.71 526.267C1356.02 527.442 1356.27 528.565 1356.46 529.582C1356.63 530.479 1356.77 531.327 1356.89 532.134C1357.75 538.706 1357.46 541.642 1357.32 544.453C1356.92 549.639 1356.26 552.488 1355.69 555.059C1354.51 560.106 1353.38 563.614 1352.13 568.229C1349.47 577.951 1347.09 587.266 1346.25 589.793C1345.62 591.661 1344.43 592.135 1342.88 596.616C1338.04 610.514 1344.27 600.007 1336.84 612.87C1337.78 609.455 1338.69 606.096 1339.63 602.653C1333.94 619.405 1325.43 641.38 1332.39 616.827C1333.6 612.547 1333.39 616.47 1334.38 613.332C1371.38 469.928 1340.62 594.038 1328.1 631.423C1327.26 633.251 1326 636.666 1324.49 641.077C1317.41 662.428 1302.85 705.719 1301.78 707.417C1300.31 710.18 1303.24 698.997 1297.03 712.804C1297.4 715.575 1258.97 800.681 1271.58 769.291C1274.84 762.807 1292.34 722.51 1295.57 712.816C1285.11 734.376 1263.31 790.38 1258.39 796.182C1244.38 819.258 1282.11 749.611 1251.47 801.847C1250.47 803.502 1249.79 804.689 1249.55 805.147C1237.54 830.707 1252.19 803.441 1247.22 816.341C1244.82 822.412 1230.04 854.968 1226.69 865.685C1227.19 864.788 1227.38 864.606 1227.59 864.516C1227.8 864.439 1228 864.487 1228.23 864.565C1228.33 864.307 1228.18 864.955 1228.09 865.47C1227.98 866.021 1227.86 866.561 1227.75 866.965C1227.54 867.789 1227.34 868.065 1227.17 868.006C1226.82 867.884 1226.55 866.674 1226.42 867.284C1225.82 867.062 1225.81 892.388 1226.22 904.513C1226.18 904.374 1226.14 904.214 1226.08 904.057C1226.03 903.897 1225.65 904.135 1225.26 904.305C1224.87 904.477 1224.46 904.577 1224.4 904.491C1224.34 904.418 1224.32 904.069 1224.11 903.259C1223.93 902.475 1223.35 901.343 1223.32 901.297C1222.86 901.024 1227.83 905.463 1230.18 907.23C1230.18 907.219 1230.19 907.214 1230.2 907.207C1230.22 907.191 1230.29 907.085 1230.4 906.96C1229.26 905.445 1227.79 903.199 1229.33 904.199C1229.68 904.428 1230.33 904.932 1231.39 905.777C1231.33 905.658 1231.32 905.681 1232 906.032C1232.65 906.37 1234.05 906.99 1236 907.628C1239.82 908.902 1245.79 910.258 1246.51 910.28C1247.75 910.265 1238.87 908.161 1235.16 906.577C1231.06 904.8 1232.26 904.714 1232.52 904.11C1231.8 905.026 1244.05 907.277 1265.02 912.817C1270.01 914.251 1274.51 915.419 1277.79 916.167C1276.21 915.832 1270.59 914.048 1265.23 912.217C1257.81 909.706 1252.53 908.528 1249.88 907.782C1251.13 907.349 1256.47 907.864 1265.74 910.737C1275.12 913.533 1286.97 917.944 1278.85 916.365C1286.82 918.098 1281.72 915.839 1286.41 916.525C1287.56 916.653 1299.25 920.786 1301.79 921.417C1302.07 921.388 1290.15 916.156 1292.75 916.644C1294.28 916.912 1299.25 918.497 1305.55 920.9C1306.16 921.13 1307.94 921.938 1308.54 922.209C1322.86 929.046 1335.51 936.988 1337.3 938.085C1343.98 942.632 1319 929 1315.42 928.323C1315.65 928.434 1336.4 942.335 1336.35 942.547C1337.01 944.835 1313.53 930.061 1315.26 932.908C1321.57 936.698 1327.22 940.343 1332.76 943.922C1325.45 940.319 1317.09 935.509 1304.93 929.734C1304.44 929.511 1302.97 928.846 1302.47 928.657C1287.76 923.096 1273.92 918.907 1264.01 915.727C1253.27 912.371 1247.93 911.777 1244.79 911.407C1249.74 912.591 1255.77 913.793 1263.75 916.473C1276.7 920.85 1290.62 925.376 1301.81 930.318C1302.29 930.498 1303.69 931.132 1304.16 931.345C1318.14 938.858 1323.85 943.747 1323.16 945.375C1322.45 946.841 1306.97 939.362 1307.12 940.032C1309.24 942.697 1329.92 952.654 1330.45 953.09C1330.99 953.51 1331.21 953.744 1331.17 953.82C1331.17 953.82 1331.17 953.82 1331.17 953.82C1330.8 954.553 1308.77 942.284 1300.5 938.971C1300.14 938.807 1299.06 938.318 1298.69 938.179C1297.83 937.891 1297.26 937.721 1297.07 937.693C1296.12 937.571 1296.81 938.328 1298.19 939.452C1298.54 939.584 1299.57 940.049 1299.91 940.205C1303.23 943.052 1308.69 947.775 1308.45 948.163C1308.18 948.097 1303.41 945.656 1298.31 943.542C1298.02 943.407 1297.13 943.005 1296.83 942.891C1291.5 941.149 1286.9 940.017 1290.72 942.079C1292.12 942.844 1293.99 943.75 1296.09 944.745C1296.37 944.849 1297.18 945.216 1297.45 945.34C1306.79 950.544 1317.82 957.153 1318.35 957.524C1320.25 959.225 1307.47 952.055 1296.57 947.171C1296.33 947.06 1295.59 946.727 1295.34 946.633C1290.31 944.83 1286.4 943.601 1286.03 943.603C1285.71 943.605 1290.26 945.65 1294.84 947.902C1295.07 947.99 1295.76 948.299 1295.98 948.403C1300.54 951.021 1304.45 953.651 1304.63 953.942C1304.75 954.265 1300.45 952.256 1295.11 950.222C1294.91 950.129 1294.3 949.855 1294.09 949.777C1290.37 948.679 1286.42 947.675 1283.97 947.312C1279.64 946.648 1291.16 951.591 1289.05 950.969C1287.56 950.264 1260.89 941.224 1255.72 939.549C1255.17 939.365 1254.79 939.254 1254.65 939.217C1253.48 938.937 1254.3 939.448 1255.52 940.15C1256.87 941.002 1258.85 942.11 1258.2 942.044C1257.73 941.996 1256.55 941.641 1255.16 941.175C1251.17 939.819 1246.13 938.453 1247.05 938.965C1247.31 939.131 1250.29 940.128 1254.83 942.121C1265.65 947.056 1286.37 956.433 1285.88 957.171C1284.84 958.265 1244.96 940.646 1281.09 959.967C1281.27 960.06 1286.17 961.635 1288.99 962.643C1289.02 962.654 1289.1 962.69 1289.13 962.703C1290.22 963.176 1290.99 963.532 1291.05 963.576C1292.61 964.78 1290.78 964.322 1288.63 963.742C1288.62 963.736 1288.58 963.719 1288.57 963.714C1285.14 963.056 1280.91 962.061 1288.04 965.04L1288.01 965.028C1290.67 966.38 1294.91 968.589 1301.34 972.137C1296.1 969.384 1291.62 967.156 1287.79 965.487L1287.85 965.514C1243.72 951.224 1292.18 969.233 1282.15 968.335C1278.17 967.758 1251.85 959.381 1251.61 959.427C1253.75 961.582 1262.48 963.44 1265.09 965.019C1266.2 965.683 1252.59 962.024 1248.15 961.324C1246.99 961.192 1246.58 961.324 1247.59 961.888C1247.67 961.934 1247.77 961.988 1247.9 962.05C1252.09 963.96 1275.13 971.568 1275.89 972.067C1285.04 976.381 1273.14 972.962 1275 974.316C1275.61 974.753 1279.38 976.241 1283 977.757L1282.1 977.364C1285.46 979.055 1289.04 981.051 1289.19 981.17C1289.42 981.384 1285.77 979.763 1281.67 978.269L1282.63 978.69C1276.89 976.989 1269.54 975.117 1267.1 974.623C1263.84 973.951 1275.3 978.741 1273.04 978.162C1259.91 974.731 1231.09 961.883 1258.01 975.464C1259.68 976.286 1269.96 979.72 1270.18 979.882C1276.02 983.192 1257.4 976.787 1253.39 976.513C1246.93 976.095 1275 984.632 1251.5 977.904C1262.58 982.408 1270.08 985.148 1278.72 988.559L1277.08 987.842C1281.08 989.761 1286.34 992.561 1292.86 996.155C1286.83 992.83 1281.21 989.899 1276.97 988.073L1278.62 988.796C1260.53 982.557 1246.75 979.578 1245.34 980.01C1243.49 980.551 1255 984.783 1276.91 993.122L1274.96 992.269C1276.04 992.791 1277.3 993.428 1278.66 994.136C1277.21 993.371 1275.96 992.76 1274.94 992.306L1276.89 993.16C1263.79 988.471 1264.01 990.928 1258.9 989.16C1256.95 988.496 1247.21 984.426 1240.79 982.501C1239.57 982.198 1238.15 982.083 1237.7 982.525C1237.18 982.953 1237.83 983.967 1239.05 985.623C1239.12 985.736 1239.33 985.867 1239.58 985.998C1244.09 987.92 1257.23 991.797 1252 991.332C1246.55 989.437 1242.31 987.971 1239.26 986.91C1238.1 986.508 1236.79 986.159 1236.07 985.995C1235.34 985.826 1235.11 985.814 1235.31 985.927C1235.7 986.143 1237.82 986.871 1239.07 987.466C1244.43 989.586 1250.83 991.991 1250.81 992.064C1250.48 992.646 1245.97 991.582 1238.45 989.236C1234.46 986.454 1213.35 989.387 1181.2 965.802C1176.69 961.874 1168.87 955.771 1161.47 945.384C1153.91 935.164 1148.85 919.907 1148.68 907.787C1148.16 892.127 1148.46 878.595 1148.67 872.36C1149.41 861.623 1147.96 853.626 1154.32 834.896C1157.67 824.888 1159.88 817.028 1160.96 814.405C1166.85 800.1 1163.15 812.479 1164.91 809.453C1166.34 807.154 1173.17 786.067 1180.89 769.562C1185.3 760.859 1186.67 758.748 1187.13 757.955C1191.65 751.451 1188.86 759.105 1189.35 758.431C1195.89 751.771 1217.24 702.325 1222.74 686.817C1221.72 687.078 1209.96 716.164 1215.78 697.396C1222.38 675.396 1226.74 675.455 1227.18 674.965C1234.08 655.95 1240.51 636.534 1246.68 616.757C1251.49 601.342 1256.38 586.016 1260.91 571.134C1263.17 563.696 1265.34 556.342 1267.06 549.697C1267.9 546.435 1268.63 543.198 1268.94 541.32C1269.02 540.844 1269.07 540.513 1269.08 540.393C1269.09 540.299 1269.06 540.371 1269.04 541.166C1269.07 541.953 1268.89 543.305 1269.69 547.359C1270.21 549.621 1270.86 552.589 1273.51 557.392C1276.03 562.079 1282.04 569.297 1290.71 573.162C1292.03 573.786 1294.52 574.718 1296.73 575.213C1298.87 575.716 1300.79 575.913 1302.06 575.976C1304.7 576.09 1305.63 575.9 1306.04 575.863C1306.75 575.749 1305.62 575.937 1304.35 576.293C1301.72 577 1297.88 578.26 1294.1 579.601C1286.37 582.344 1278.1 585.602 1269.89 588.927C1253.29 595.665 1236.58 602.845 1219.68 610.216C1200.93 618.402 1181.93 626.809 1163.07 635.178C1164.72 636.322 1200.69 619.825 1220.07 611.111C1227.07 607.958 1231.77 605.867 1232.22 605.761C1234.55 605.246 1229.6 607.732 1220.45 611.98C1192.76 624.806 1126.66 654.031 1116.07 658.061C1126.67 653.896 1137.36 649.697 1147.94 645.548C1131.28 655.873 1090.43 670.241 1065.12 682.769C1056.94 686.817 1073.36 680.663 1073.06 680.871C1064.12 685.98 1048.76 691.915 1059.43 685.653C1037.11 697.016 1039.84 694.191 1022.23 701.856C1021.33 702.249 1029.3 699.91 1015.58 706.457C1009.15 709.536 974.304 724.848 970.019 727.732C968.279 728.93 987.635 725.034 988.356 720.776C1026.96 705.72 999.779 713.96 1014.55 707.543C1016.8 706.565 1012.45 710.714 1049.02 693.482C1043.47 699.926 999.779 716.259 992.621 719.863C977.927 727.326 1040.78 701.692 1050.99 694.039C1046.82 698.981 1055.54 692.441 1069.39 686.42C1084.55 679.824 1078.3 683.525 1086.48 679.895C1108.83 669.985 1098.76 672.271 1117.89 665.741C1097.69 668.614 1149.07 651.066 1164.08 646.017C1140.77 656.664 1117.47 667.344 1094.1 678.038C1095.55 677.713 1097.02 677.381 1098.49 677.051C1092.29 679.76 1086.08 682.474 1079.89 685.177C1080.77 684.48 1081.64 683.784 1082.52 683.088C1051.38 698.916 1042.73 700.49 1040.13 701.619C1006.51 716.24 967.698 733.362 933.435 748.078C928.382 750.212 932.35 750.522 897.942 763.707C896.715 764.174 895.454 764.651 894.159 765.138C882.072 769.664 892.724 763.714 879.224 769.527C863.506 780.168 862.68 777.142 857.532 779.228C842.809 785.181 833.856 789.646 832.423 790.212C825.198 793.051 816.633 796.334 806.644 799.735C795.338 802.334 789.848 809.353 756.334 807.538C753.905 807.168 746.057 806.36 736.551 801.727C726.977 797.189 718.725 789.154 714.402 782.898C705.761 770.087 704.891 763.219 703.315 757.635C703.153 757.082 704.39 763.465 705.444 766.924C705.919 768.57 705.843 768.781 704.791 765.984C703.775 763.262 702.155 757.812 701.216 751.323C701.039 750.13 700.769 747.68 700.612 744.652C700.356 731.793 698.649 689.443 712.928 647.258C713.53 645.408 714.108 643.584 714.658 641.79C713.966 643.546 713.265 645.325 712.557 647.127C708.538 657.635 705.676 668.259 703.711 678.732C704.59 674.27 706.624 661.754 711.784 646.853C720.347 621.585 732.38 586.25 726.541 599.363C721.369 610.907 714.419 640.226 710.404 642.17C714.59 631.823 724.384 602.758 737.817 568.785C744.741 551.766 752.743 532.746 765.532 513.655C778.249 494.341 795.561 479.236 806.549 471.217C814.747 465.117 820.395 461.008 822.214 459.824C823.575 458.942 816.219 465.677 818.085 464.453C819.594 463.455 846.733 442.998 850.391 440.681C852.654 439.277 841.182 448.664 842.345 448.244C843.555 447.787 876.719 423.078 877.419 420.644C870.154 427.203 847.038 444.132 858.328 434.209C859.795 432.935 868.137 427.553 869.828 426.004C885.902 411.66 835.144 451.11 826.259 457.386C850.192 438.017 884.843 413.759 909.885 389.88C919.964 380.287 929.44 370.74 937.886 361.622C951.746 348.908 919.57 382.626 935.074 368.09C967.055 337.515 942.181 358.638 943.054 357.561C949.931 349.094 979.429 325.073 976.115 322.054C985.727 311.984 984.801 313.792 993.629 303.116C995.049 301.389 996.758 299.293 998.766 296.805C996.816 298.689 994.834 300.606 992.884 302.481C992.631 302.724 992.378 302.967 992.125 303.209C992.322 302.926 992.524 302.64 992.73 302.35C1008.2 280.948 1046.49 243.975 1044.26 247.347C1038.45 256.704 1018.74 277.318 1017.19 279.199C1015.36 281.469 1013.11 288.795 997.102 306.076C993.378 310.085 988.895 314.606 983.459 319.664C979.465 326.388 989.259 316.098 997.784 306.657C1006.98 296.476 1014.89 287.487 1003.74 302.277C1019.66 283.801 1083.4 207.976 1089.44 195.864C1090.2 194.437 1083.62 198.873 1098.2 180.661C1105.02 172.024 1089.93 193.872 1093.32 190.126C1094.99 188.328 1099.59 182.351 1105.5 173.698C1112.57 163.255 1122 149.17 1132.23 133.292C1137.32 125.36 1142.65 116.945 1147.46 108.733C1149.83 104.673 1152.1 100.581 1153.59 97.4788C1154.31 96.0153 1154.83 94.6237 1154.65 95.1146C1154.56 95.4727 1154.21 96.1132 1153.78 99.3735C1153.99 102.299 1150.83 110.404 1161.57 126.044C1163.1 127.982 1163.58 128.216 1163.8 128.423C1164 128.576 1163.88 128.484 1163.69 128.398C1163.3 128.198 1162.67 128.018 1162.35 127.994C1121.7 124.088 1070.1 132.435 1054.6 135.061C1052.02 135.497 1052.82 134.428 1050.25 134.878C1047.71 135.325 1042.97 136.313 1037.23 137.609C1023.54 140.371 1015.46 143.378 1007.38 146.544C1023.19 141.891 1007.1 147.397 990.157 156.808C983.453 160.415 977.665 163.85 974.216 165.904C955.854 177.067 955.895 175.412 947.647 180.467C915.501 200.498 868.967 239.062 842.504 253.963C845.795 255.934 799.609 283.267 779.603 298.064C779.565 298.092 779.526 298.121 779.488 298.149C764.092 309.517 743.105 328.065 764.741 313.781C738.043 333.396 710.308 354.917 685.441 373.778C681.305 376.915 686.379 371.804 679.369 377.165C678.741 377.655 678.503 379.123 672.524 383.73C623.067 421.879 646.076 401.916 636.355 408.389C630.924 412.007 626.937 414.772 624.051 416.862C653.061 394.851 686.443 369.383 695.369 362.682C686.322 366.574 631.114 411.298 614.083 423.321C613.493 423.736 614.746 421.223 614.155 421.655C614.143 421.664 614.131 421.673 614.119 421.683C607.782 426.309 568.36 456.489 577.439 451.549C579.854 450.236 598.135 436.503 619.768 420.11C614.087 424.722 619.3 422.574 618.304 423.396C606.108 433.41 574.59 455.355 563.514 463.447C561.003 465.284 561.722 465.872 561.316 466.18C551.279 473.467 553.802 468.345 545.202 478.136C525.295 489.08 578.611 452.429 573.723 453.497C569.95 454.291 455.73 541.301 457.608 543.077C457.049 543.158 455.267 544.08 451.802 546.211C444.161 550.901 412.336 575.21 407.133 579.716C406.262 580.488 408.11 582.171 406.975 583.054C404.085 585.302 364.029 613.081 350.254 625.286C358.287 619.661 366.446 613.941 374.469 608.324C327.04 644.105 334.718 639.234 351.039 627.849C351.83 627.261 352.653 626.758 353.412 626.198C366.046 617.353 382.033 605.958 382.421 605.908C383.785 605.803 303.365 666.948 317.517 653.425C319.505 651.536 357.43 624.214 337.952 636.862C334.595 639.037 310.85 657.52 309.556 658.271C300.394 663.686 351.707 623.017 344.361 626.435C332.527 637.376 315.836 648.897 301.474 660.246C294.947 665.402 294.107 667.578 293.307 668.21C281.237 677.712 287.333 671.499 283.262 674.609C281.125 676.248 258.649 696.631 260.947 690.154C183.421 752.056 240.599 708.986 289.234 672.051C274.727 684.717 244.204 706.887 230.78 717.398C226.088 721.078 229.651 719.978 221.549 726.396C217.658 729.482 209.724 735.472 200.226 742.544C169.428 765.508 118.132 802.793 101.948 814.433C114.733 804.379 110.026 806.164 100.089 813.66C90.003 821.255 99.5806 816.445 97.7289 818.063C97.0789 818.641 89.3566 824.274 79.9335 831.045C75.1167 834.506 69.85 838.271 64.6111 841.961C61.884 843.882 59.3103 845.681 56.5488 847.57C55.1063 848.555 53.822 849.426 52.056 850.579C51.8449 850.716 51.6532 850.84 51.4281 850.985C51.1701 851.151 50.9137 851.315 50.6562 851.478C50.3987 851.641 50.1401 851.803 49.8773 851.965C49.5706 852.156 49.196 852.385 48.8343 852.602C48.1866 852.988 47.1211 853.629 45.4973 854.475C44.9208 854.774 44.2686 855.101 43.476 855.47C42.5982 855.864 42.0953 856.14 39.6861 857.043C38.594 857.441 37.2936 857.879 35.5964 858.331C35.1715 858.443 34.721 858.556 34.2402 858.668C33.9998 858.724 33.7518 858.779 33.4956 858.835C33.4636 858.842 33.4315 858.848 33.3992 858.855C33.3517 858.865 33.2802 858.881 33.22 858.893C33.0953 858.919 32.9685 858.945 32.8398 858.971C32.5824 859.022 32.317 859.073 32.0429 859.123C29.8477 859.514 27.1135 859.887 23.4042 859.86C19.7131 859.81 14.9282 859.387 9.08127 857.403C-0.589579 854.725 -13.8955 843.437 -18.0186 832.189C-22.6469 819.996 -21.5552 815.971 -21.5401 811.228C-21.2215 806.917 -20.5284 804.175 -19.9705 802.114C-16.6324 791.374 -14.1328 788.787 -12.4542 785.848C-10.7202 783.184 -9.42684 781.458 -8.32512 779.996C-6.12933 777.111 -4.6554 775.351 -3.7206 774.189C-5.86626 776.811 -7.94105 779.433 -10.308 782.834C-12.673 786.737 -15.6333 789.207 -19.7372 802.179C-20.3457 804.46 -21.1513 807.558 -21.3738 812.703C-21.4642 815.278 -21.3815 818.402 -20.7279 822.17C-19.9992 826.543 -18.0071 833.128 -14.0244 839.144C-6.60949 852.049 11.7019 858.638 14.3186 858.601C20.0067 859.798 24.2428 859.708 27.4804 859.467C34.6408 858.692 35.0078 858.152 36.9258 857.692C38.5197 857.212 39.7252 856.767 40.7359 856.367C41.8948 855.902 42.1586 855.775 42.6801 855.544C43.148 855.333 43.5655 855.137 43.9475 854.951C44.3293 854.766 44.6753 854.592 44.9956 854.428C45.1558 854.345 45.3094 854.265 45.4574 854.187C45.5783 854.123 45.6631 854.078 45.7623 854.024C46.5293 853.612 47.1524 853.254 47.7142 852.922C48.1962 852.637 48.5173 852.439 48.8816 852.212C49.6423 851.738 50.0761 851.451 50.5575 851.133C50.794 850.976 51.0265 850.82 51.2571 850.665C51.4486 850.535 51.6229 850.415 51.8042 850.29C52.1638 850.043 52.5201 849.795 52.877 849.544C53.1784 849.331 53.4585 849.131 53.7489 848.922C54.0373 848.715 54.3258 848.507 54.6146 848.298C54.864 848.116 55.0951 847.945 55.3342 847.768C57.3159 846.307 58.7211 845.213 59.7679 844.373C62.0371 842.563 62.7465 841.843 62.519 841.809C62.2345 841.814 60.8976 842.586 58.4446 844.152C57.1983 844.947 55.6659 845.946 53.8142 847.144C53.2849 847.488 52.7605 847.827 52.2382 848.161C51.6729 848.524 51.0053 848.952 50.3424 849.367C49.5089 849.889 48.8029 850.334 47.422 851.145C47.251 851.245 47.1239 851.318 46.8931 851.451C46.656 851.587 46.4074 851.728 46.1424 851.875C45.8773 852.023 45.5958 852.177 45.291 852.34C44.9769 852.507 44.7071 852.651 44.104 852.957C43.5574 853.232 42.9375 853.534 42.1853 853.873C41.7997 854.047 41.4285 854.21 40.9149 854.424C40.1704 854.734 39.3082 855.074 38.2393 855.443C37.1677 855.812 35.8941 856.213 34.2441 856.617C33.8165 856.721 33.4425 856.808 32.8843 856.926C31.994 857.113 31.0013 857.294 29.8704 857.452C27.6076 857.758 24.7936 858.008 21.064 857.778C19.2006 857.658 17.1055 857.407 14.7689 856.91C13.6013 856.661 12.3744 856.349 11.0956 855.958C10.7759 855.86 10.453 855.757 10.1271 855.649C9.96419 855.595 9.8005 855.539 9.63609 855.482C9.54219 855.45 9.51047 855.439 9.35387 855.384C9.20971 855.333 9.06506 855.281 8.91985 855.228C7.75844 854.804 6.56356 854.312 5.3493 853.742C-4.60917 849.555 -14.5592 837.946 -17.3474 828.351C-18.1417 826.044 -18.7274 823.485 -18.9939 821.916C-19.2673 820.36 -19.435 818.914 -19.5336 817.578C-19.7284 814.904 -19.6573 812.671 -19.5025 810.779C-19.1743 807 -18.5564 804.528 -18.0453 802.651C-12.9291 787.534 -9.8539 786.135 -7.10025 781.825C-4.41301 778.296 -1.92249 775.38 0.618467 772.483C-1.39139 775.091 -3.45349 777.813 -5.85318 781.263C-7.02667 782.966 -8.345 784.906 -9.9248 787.53C-11.4824 790.333 -13.5516 793.105 -16.252 801.375C-13.4355 792.958 -11.1464 790.017 -9.34079 787.04C-7.50721 784.239 -5.95786 782.19 -4.40919 780.216C-1.3745 776.375 1.56561 773.071 4.53782 769.857C10.5066 763.427 16.6836 757.367 22.6685 751.622C34.6514 740.144 45.744 730.129 50.1867 725.47C51.59 723.997 45.5063 728.19 46.3047 727.354C51.4275 722.005 65.3894 709.406 74.8869 700.909C79.826 696.484 83.6103 693.062 83.9466 692.564C84.8332 691.296 72.3061 701.562 76.3801 697.145C77.2788 696.175 89.741 686.781 100.738 676.115C104.772 672.201 101.546 673.691 102.547 672.682C110.982 664.184 107.071 670.297 122.842 655.34C134.395 644.377 141.895 635.007 158.437 620.502C103.826 667.878 149.14 627.327 170.775 606.297C174.22 602.943 169.877 604.296 191.673 585.333C149.069 629.833 205.826 574.801 217.626 563.754C218.283 563.157 219.386 563.918 225.196 558.503C225.683 558.045 224.387 558.051 229.698 552.977C280.116 504.666 248.277 535.985 258.531 527.527C262.909 523.923 286.651 499.674 293.215 493.337C294.731 491.885 294.671 493.215 300.514 487.575C310.852 477.589 319.424 467.97 326.184 461.322C326.973 460.546 328.023 461.576 340.562 448.728C344.086 445.114 347.787 440.782 342.361 445.493C324.44 461.098 293.515 494.077 273.016 511.604C254.374 527.62 310.365 474.187 313.176 471.34C314.234 470.316 303.853 481.301 315.008 470.766C323.182 463.039 335.745 448.336 348.152 435.948C350.195 433.91 352.227 431.94 354.231 430.08C355.302 429.094 367.907 419.654 367.463 420.26C367.092 420.772 350.352 437.868 353.254 435.871C353.607 435.63 364.433 424.972 366.162 423.9C368.266 422.607 376.789 421.861 379.188 419.675C385.325 414.066 380.608 416.991 384.504 413.245C392.874 405.246 422.263 377.956 421.833 375.652C417.091 380.297 412.375 384.898 407.594 389.549C433.437 363.196 421.747 373.815 425.186 369.84C428.872 365.544 428.911 367.89 437.745 359.093C439.723 357.213 475.577 319.661 474.401 319.793C455.28 341.295 461.18 332.16 460.235 333.101C456.651 336.62 453.011 342.036 448.267 346.881C414.958 380.734 447.121 345.213 438.954 352.9C436.142 355.556 431.479 361.722 430.275 362.876C426.452 366.537 425.466 365.7 423.043 368.31C417.385 374.398 425.49 368.771 425.098 369.303C420.738 375.387 399.267 394.999 410.588 380.772C402.43 387.981 403.28 390.541 396.491 395.98C383.083 406.688 401.521 388.953 406.174 383.797C422.874 365.309 428.732 360.741 453.027 335.255C461.759 326.083 471.314 314.426 475.331 310.124C477.861 307.466 504.881 284.862 500.919 279.717C510.658 270.27 528.257 257.517 537.529 247.111C545.848 237.772 541.523 239.142 542.241 238.231C543.333 236.842 553.659 225.738 556.824 221.727C560.495 217.076 557.93 218.658 563.957 211.381C564.806 210.355 565.596 209.407 566.336 208.53C578.99 193.484 580.199 195.103 581.763 193.543C600.94 173.819 590.512 180.853 594.154 176.134C594.952 175.058 598.655 170.678 603.107 164.962C605.308 162.132 607.667 158.955 609.337 156.416C610.169 155.157 610.78 154.125 611.097 153.544C611.429 152.913 611.434 152.978 611.723 152.207C612.266 150.707 612.557 149.321 612.651 148.482C612.702 148.07 612.703 147.8 612.714 147.845C612.734 147.903 612.733 148.239 613.014 149.394C613.226 150.183 613.684 152.085 615.286 155.212C616.825 158.283 619.908 162.507 623.429 165.508C630.895 171.702 635.232 172.069 636.127 172.461C636.564 172.578 636.049 172.496 635.517 172.474C634.959 172.442 634.29 172.428 633.73 172.444C635.317 172.32 636.789 172.378 636.225 172.045C635.483 171.723 633.62 171.208 630.258 169.321C626.969 167.531 622.18 163.638 619.258 159.439C622.496 163.506 627.51 167.179 630.781 168.71C634.139 170.344 635.837 170.651 636.508 170.841C636.857 170.924 636.311 170.852 635.69 170.815C635.046 170.77 634.259 170.724 633.558 170.645C632.139 170.485 631.084 170.173 631.061 169.267C630.377 171.1 626.708 171.507 622.663 171.858C617.034 172.286 609.467 172.926 606.095 173.783C603.692 174.387 604.058 175.022 601.044 175.82C589.347 178.538 560.187 189.018 553.293 192.578C523.814 206.457 601.907 177.127 605.863 178.95C596 179.148 527.605 208.92 559.784 197.623C564.724 195.88 572.517 190.855 575.164 189.821C593.007 182.947 579.37 189.556 580.879 189.184C583.374 188.508 594.486 183.203 597.473 182.634C598.379 182.528 592.864 185.284 608.462 181.478C602.268 183.035 553.276 200.02 546.703 204.102C544.414 205.489 560.308 200.809 516.645 218.594C517.274 218.604 517.9 218.616 518.524 218.63C515.583 220.111 512.826 221.52 509.877 223.043C488.96 233.869 467.748 245.476 446.7 257.269C448.993 255.228 461.856 246.582 444.972 256.251C435.257 261.847 443.23 259.115 442.357 259.65C437.936 262.398 390.789 288.404 346.048 315.897C336.382 321.861 327.201 327.983 318.921 334.078C314.736 337.155 310.947 340.096 306.781 343.43C304.621 345.148 302.603 346.816 299.141 349.468C297.326 350.822 295.367 352.377 291.106 355.024C286.345 357.043 281.234 363.894 256.385 364.712C248.127 364.568 234.348 362.149 221.861 351.996C209.248 342.027 203.004 326.853 201.619 317.335C200.011 307.599 201.187 300.782 201.744 297.505C202.041 295.884 202.365 294.494 202.686 293.267C203.993 288.412 205.157 285.86 206.057 283.839C208.06 279.615 208.39 279.317 208.995 278.223C210.085 276.387 210.801 275.334 211.17 274.776C211.605 274.126 211.993 273.566 212.322 273.095C212.589 272.713 212.84 272.359 213.084 272.017C213.604 271.287 213.946 270.815 214.327 270.288C214.514 270.031 214.707 269.764 214.888 269.516C215.047 269.297 215.207 269.078 215.368 268.856C216.706 267.017 217.774 265.546 218.887 263.99C221.043 260.978 222.934 258.261 224.703 255.66C228.146 250.597 230.91 246.28 232.697 243.422C238.551 234.574 252.052 207.705 252.959 205.532C259.307 194.105 278.528 152.761 282.702 140.554C282.919 139.979 283.106 139.478 283.261 139.053C285.384 133.182 282.12 138.266 284.135 133.098C285.993 128.282 285.252 133.712 285.836 132.293C287.247 128.839 291.217 118.22 295.056 105.499C296.954 99.1863 298.787 92.2997 299.897 86.469C300.452 83.5829 300.805 80.9722 300.909 79.3903C301.061 77.8692 300.736 77.1969 301.122 80.1007C301.168 80.137 301.196 81.841 303.061 86.7983C304.751 91.5343 309.963 100.438 317.301 106.254C332.956 117.851 339.502 115.754 341.056 116.405C328.8 115.636 319.244 116.352 314.768 116.605C318.404 116.238 328.84 115.022 341.119 115.384C339.72 114.667 332.244 116.554 316.9 104.191C309.855 98.0715 305.555 89.77 304.169 85.6047C302.654 81.2163 302.695 79.8461 302.711 79.841C302.503 77.2412 302.907 77.9513 302.939 79.0828C303.014 80.2859 302.93 82.1349 302.798 83.7903C302.524 87.1717 302.158 89.8186 302.412 89.5784C302.49 89.4915 303.503 86.1879 304.14 83.3099C304.808 80.3287 304.989 78.4709 304.764 78.2755C304.919 78.1286 304.977 77.9703 304.978 78.0477C304.983 78.1327 304.914 78.4492 304.969 79.4722C304.911 79.4295 304.783 80.4139 305.948 84.2283C307.016 87.806 310.499 95.5698 317.25 101.928C323.923 108.33 331.01 111.199 334.719 112.369C338.619 113.574 340.325 113.717 341.212 113.888C338.407 113.902 335.805 113.888 333.67 113.697C332.758 113.727 336.36 111.486 321.273 111.803C316.36 111.843 302.544 115.215 297.052 116.463C296.619 116.719 296.145 117.009 295.854 117.215C279.847 125.543 245.436 154.305 216.098 183.504C195.275 203.897 178.425 220.995 176.276 224.195C176.152 224.456 190.82 210.706 181.772 220.874C169.778 234.38 178.702 220.435 163.66 235.126C161.349 237.322 120.485 279.248 119.346 280.793C108.351 294.824 144.715 258.899 144.406 259.588C143.536 261.256 114.054 291.786 112.778 292.942C111.518 294.028 133.818 267.441 105.503 297.881C109.056 294.676 112.594 291.496 116.141 288.313C102.949 302.698 100.356 302.807 96.9957 306.111C88.981 314.011 81.792 323.686 70.7574 334.224C67.363 337.473 63.6444 340.777 59.3809 344.209C54.5863 348.056 60.7581 339.927 60.1209 340.42C54.0232 345.15 50.9934 353.422 39.7735 361.773C39.6132 361.843 44.3136 356.243 44.4657 355.493C44.5392 355.124 43.846 355.625 40.508 358.973C39.6207 359.856 38.6919 360.805 36.9118 362.55C36.4583 362.992 36.0022 363.435 35.2444 364.148C34.8849 364.485 34.4944 364.846 34.0489 365.247C33.5066 365.735 32.7996 366.361 31.9243 367.085C31.1727 367.689 29.7184 368.956 26.684 370.941C25.9011 371.447 25.0638 371.967 23.9002 372.622C21.9317 373.71 19.423 375.042 15.272 376.462C13.1845 377.161 10.6604 377.879 7.4237 378.416C5.80524 378.682 4.00571 378.898 1.99555 379.006C0.989871 379.06 -0.0669898 379.086 -1.17959 379.074C-2.53281 379.07 -5.09559 378.941 -7.3015 378.632C-16.3844 377.634 -28.863 372.252 -36.8451 363.449C-44.926 355.106 -48.3907 344.197 -49.1678 340.171C-51.8007 326.179 -49.4927 321.03 -48.9799 317.642C-48.4627 315.485 -47.9753 313.968 -47.5457 312.711C-46.5792 309.976 -46.2947 309.431 -45.8245 308.324C-44.2303 304.784 -43.591 303.726 -42.784 302.193C-42.061 300.856 -41.4081 299.688 -40.7163 298.459C-39.3915 296.11 -38.0852 293.831 -36.6314 291.28C-38.4344 293.98 -40.2138 296.611 -42.3088 299.933C-41.0402 297.219 -37.503 290.741 -33.456 283.377C-25.6717 269.226 -15.3057 250.731 -13.2441 247.231C-3.9501 231.478 -10.3232 246.193 -1.50728 230.101C-9.19017 239.226 17.6004 190.521 17.6827 194.277C18.7461 188.624 31.7681 166.027 41.5127 147.519C45.6261 139.664 49.3655 132.476 51.9454 127.151C54.3093 122.281 57.6031 114.877 59.2092 110.156C59.5909 109.038 59.8412 108.138 59.8623 107.885C59.893 107.672 59.6355 107.994 59.2378 110.379C59.0169 112.739 57.8467 117.687 60.9001 127.964C63.6099 138.384 74.7 150.176 81.4193 153.41C84.1918 155.021 85.8898 155.565 86.6905 155.828C89.5505 156.656 90.1756 156.177 91.1915 155.858C92.0647 155.502 93.4382 155.031 93.6923 154.8C93.7537 154.794 93.8423 154.737 90.9463 155.727C88.1821 156.689 82.7316 159.079 76.2115 162.652C67.874 167.333 61.643 169.75 56.6177 171.739C51.9934 173.506 43.4933 174.619 49.8991 170.623C54.5811 167.67 62.2106 164.812 73.7186 158.417C81.8156 153.889 87.4925 152.336 86.9458 151.455C86.6088 150.614 80.8286 152.511 72.9938 157.185C57.0428 166.058 48.519 169.359 44.6514 171.505C28.1237 179.93 26.4105 182.305 26.05 181.308C26.0142 180.397 29.4514 176.957 28.9346 177.009C25.9675 176.755 11.6508 190.744 11.2074 191.786C8.36294 194.096 17.3329 182.384 17.0235 181.822C16.3225 180.317 1.1746 194.826 3.98251 191.056C7.69752 184.717 22.5185 173.362 23.5405 172.952C35.2427 163.198 16.6061 172.97 11.5209 176.843C9.89898 177.828 14.8154 172.321 13.6271 173.292C-4.29537 188.887 12.5036 178.947 2.06623 190.664C-6.75478 201.966 2.87168 186.117 2.61981 186.58C1.94471 186.835 -8.3334 200.97 -10.1744 203.325C-10.6341 203.818 -5.5983 193.522 0.605259 184.458C6.66616 175.286 14.1042 167.588 12.9138 167.625C2.22225 177.13 -6.76801 189.038 -14.3883 202.334C-16.867 202.15 -3.43651 184.757 -1.96706 183.302C0.526752 179.55 -8.03673 188.729 -8.12719 188.012C-8.37579 187.514 -0.170782 174.895 -8.98501 185.223C-11.928 188.907 -16.7339 197.423 -26.0698 212.507C-12.2972 184.969 -8.47525 182.256 -11.1655 184.12C-13.5551 186.173 -20.0357 195.166 -20.7673 195.844C-22.3412 197.018 -7.78413 170.967 -26.6461 201.839C-30.6651 201.402 -27.4405 200.439 -22.5005 191.335C-19.3926 185.815 -22.0767 188.996 -22.3126 188.811C-22.2987 188.813 -21.0408 184.101 -5.34332 167.31C-9.25319 167.182 -30.9133 198.17 -31.2784 200.395C-32.2624 201.847 -28.804 194.064 -30.5689 196.543C-34.33 201.814 -36.784 205.627 -38.5269 208.317C-46.3763 220.51 -38.8462 207.078 -44.3471 214.095C-44.9819 214.82 -61.0257 245.754 -49.6378 221.797C-46.9864 216.257 -44.5087 211.238 -42.1274 206.507C-25.5118 174.115 -12.106 164.232 -10.5264 155.685C-25.9917 168.949 -37.9222 188.736 -45.1906 204.968C-51.0838 217.939 -55.3908 228.375 -57.4788 232.742C-64.6397 247.78 -58.1262 231.756 -59.295 233.484C-59.6895 234.039 -65.8058 247.032 -65.9657 247.204C-71.0243 251.928 -59.0452 227.853 -46.4443 204.338C-38.9628 190.095 -29.7794 177.045 -24.4602 169.926C-28.8628 174.588 -33.0374 179.557 -36.9321 184.638C-32.3395 177.245 -27.2563 170.093 -21.612 163.398C-47.5506 196.021 -23.9467 163.797 -18.3312 154.119C-17.2535 151.803 -35.6 173.516 -14.8924 148.495C-31.7619 165.458 -27.3887 159.584 -39.0267 177.553C-41.034 176.007 -11.0778 135.823 7.54172 126.491C-22.3627 145.378 -24.7263 154.331 -28.6077 158.968C-31.7777 164.387 -35.7455 167.935 -51.1339 192.57C-54.8845 202.724 -41.7145 178.542 -42.3608 180.694C-44.3417 184.88 -48.7627 191.732 -53.0805 201.002C-56.2328 207.778 -59.6054 215.785 -62.4075 224.875C-63.4461 228.301 -55.3798 215.6 -65.1032 235.476C-66.1703 237.627 -73.562 249.803 -73.5608 249.585C-73.806 247.349 -67.4257 234.944 -67.5978 234.225C-67.7886 233.534 -74.2329 247.715 -74.3674 247.75C-75.8655 247.513 -69.3005 235.759 -70.5299 237.306C-73.2536 240.664 -100.092 290.362 -67.7894 224.315C-92.4976 280.054 -69.9736 231.912 -59.8951 210.454C-57.9013 206.164 -57.5322 204.176 -55.7009 199.685C-55.1625 198.384 -54.5072 196.901 -53.6649 195.161C-48.6957 184.673 -40.7204 173.132 -37.1669 168.104C-35.2818 165.35 -40.3251 171.375 -41.6444 172.588C-42.6742 174.024 -42.2419 169.354 -23.1651 148.767C-35.5668 159.711 -48.8583 179.129 -58.2163 198.421C-64.9189 211.958 -71.2657 225.046 -76.4848 234.564C-98.7645 275.752 -70.6801 213.999 -61.9273 196.556C-60.9884 194.616 -60.2784 193.193 -59.8891 192.394C-58.8791 190.308 -62.7819 195.796 -63.1228 195.955C-63.1357 195.959 -63.1437 195.955 -63.1462 195.943C-63.1509 195.915 -63.1284 195.845 -63.0738 195.725C-63.2814 192.637 -32.8237 147.187 -27.6311 143.448C-24.6536 138.562 -41.5065 158.913 -42.9007 159.921C-43.552 160.147 -33.8793 146.547 -24.8521 137.573C-15.8321 128.637 -9.74435 123.127 -24.3525 135.601C-41.4239 150.185 -58.8498 181.153 -66.1238 194.447C-67.6546 197.019 -68.9265 198.813 -69.9045 199.646C-68.9844 197.768 -68.0538 195.875 -67.1051 193.953C-52.5854 164.238 -30.3442 133.575 1.49991 114.485C-17.3929 124.457 -34.5913 139.124 -48.0155 155.219C-26.8001 123.254 16.1072 102.85 35.2423 93.0424C38.3972 91.0698 41.5183 89.1966 44.9377 87.28C41.063 89.1008 37.8231 90.7631 34.8409 92.3605C30.1858 94.5585 23.9544 96.9044 20.893 98.058C17.6485 99.264 16.6375 99.4985 17.5115 98.8631C18.9462 97.6733 28.8597 93.0841 33.5713 90.2033C49.6244 79.3564 78.6954 71.165 80.509 71.568C80.7306 71.3163 67.5424 72.7732 56.3425 76.5788C44.8655 80.2205 34.4707 85.3138 31.564 86.7147C38.6244 82.3326 49.1543 76.0547 64.1309 70.96C78.8716 66.5674 100.119 60.103 127.039 73.8861C135.471 78.1837 144.847 89.255 147.701 98.3359C150.871 107.415 150.697 113.42 150.615 117.777C150.164 126.193 148.932 130.1 148.149 133.496C146.464 139.935 145.397 143.012 145.098 144.648C144.809 146.156 145.288 145.914 146.801 143.032C147.571 141.516 148.587 139.437 149.952 135.782C151.115 131.615 153.694 128.508 154.031 112.987C153.216 135.023 147.961 142.106 145.443 150.601C142.591 158.305 140.502 163.796 140.645 163.705C141.61 162.869 144.779 157.013 148.719 147.763C150.654 142.96 152.963 137.82 155.106 128.054C155.984 122.928 157.603 116.615 155.505 104.233C154.289 91.9835 140.877 73.4265 130.13 68.4971C113.905 59.7885 106.645 60.2027 113.267 60.8342C118.326 61.8152 124.365 63.7298 130.798 67.3322C138.295 71.3299 147.843 80.4009 152.424 90.3843C157.179 100.328 157.828 108.603 157.893 114.324C157.702 125.801 155.715 130.863 154.265 135.747C151.186 144.834 148.175 150.684 145.539 156.839C138.311 173.15 133.682 183.208 130.226 191.803C116.61 224.006 120.989 226.128 91.5628 276.969C92.5403 275.823 93.5197 274.673 94.5004 273.518C82.6595 294.427 70.6686 315.255 58.8516 335.775C55.8989 340.917 52.7555 346.295 50.4497 350.377C50.1953 350.828 49.9319 351.302 49.7826 351.573C49.7111 351.702 49.6378 351.838 49.6257 351.857C49.6109 351.881 49.6325 351.838 49.7629 351.565C49.8322 351.419 49.8967 351.283 50.0488 350.949C50.208 350.598 50.4197 350.123 50.7058 349.423C50.9286 348.862 51.4957 347.525 52.2487 345.074C52.4375 344.453 52.6395 343.75 52.8517 342.93C52.9578 342.52 53.0664 342.081 53.1764 341.606C53.3489 340.863 53.5593 339.874 53.7475 338.804C54.1213 336.631 54.5157 333.892 54.5709 329.941C54.5912 327.962 54.5183 325.668 54.2017 322.946C54.0423 321.585 53.8199 320.117 53.5023 318.53C53.3434 317.737 53.1605 316.914 52.9487 316.062C52.5822 314.581 52.0618 312.783 51.426 310.989C48.196 296.245 24.456 275.095 6.54642 274.617C4.38995 274.333 2.36089 274.194 0.471079 274.155C-0.72735 274.132 -1.6448 274.145 -2.6387 274.179C-4.58214 274.249 -6.35531 274.414 -7.97476 274.63C-11.2153 275.067 -13.8469 275.696 -16.0628 276.339C-24.6539 278.955 -28.2912 281.678 -29.2981 282.194C-32.3491 284.082 -33.9784 285.436 -34.679 285.99C-36.1227 287.167 -36.6702 287.708 -36.9052 287.924C-37.1806 288.186 -37.2512 288.261 -37.2479 288.261C-37.2501 288.266 -37.1634 288.182 -37.062 288.082C-36.8673 287.889 -36.4927 287.506 -36.1471 287.148C-35.3676 286.339 -34.4739 285.393 -33.5874 284.45C-26.021 276.353 -17.6189 267.299 -9.37156 258.666C14.0893 234.136 37.492 210.532 61.0042 186.918C75.5073 169.642 109.022 133.972 138.219 104.496C150.329 92.2679 161.973 81.109 171.443 72.6021C177.276 66.6841 213.962 38.2139 218.208 36.425C223.712 32.7252 194.225 55.1303 207.992 45.7015C209.006 44.9618 224.854 33.196 240.055 24.3559C270.078 7.07053 294.613 6.10995 291.026 5.32133C281.737 6.05714 250.9 16.0243 239.716 23.7931C239.154 24.1144 238.692 24.3687 238.361 24.5357C234.415 26.5423 235.201 25.7589 239.287 23.0792C258.169 9.53461 305.367 -2.14275 348.173 1.56967C356.346 2.65458 370.594 1.82085 391.277 18.1823C401.035 26.3176 407.589 37.8012 410.349 45.404C413.268 53.2354 413.982 58.1579 414.584 61.5614C418.091 89.7799 413.422 102.819 410.782 116.451C407.697 129.454 404.291 140.191 401.274 149.336C395.186 167.533 390.531 179.345 389.857 181.772C392.073 177.295 394.27 172.764 396.44 168.164C394.61 172.931 392.752 177.631 390.87 182.288C387.355 190.992 383.789 199.402 379.966 208.004ZM-38.9229 284.014C-38.6234 283.151 -38.2019 282.142 -37.6662 280.987C-33.7246 272.473 -24.7541 258.272 -19.9428 249.049C-12.3661 234.564 -3.68267 207.883 -4.7211 220.896C-15.4602 240.935 -26.3759 260.981 -37.3666 281.157C-37.9025 282.141 -38.4212 283.093 -38.9229 284.014ZM269.562 140.304C258.292 148.725 264.834 139.037 274.302 133.322C275.328 132.784 284.455 129.845 269.562 140.304ZM151.266 252.426C151.707 251.919 161.531 242.117 161.904 241.812C171.518 233.842 141.929 263.362 151.266 252.426ZM492.802 229.242C477.575 237.457 489.957 233.985 498.896 228.033C499.473 227.649 493.78 228.717 492.802 229.242ZM481.893 234.945C468.822 239.088 447.293 256.653 466.073 245.796C467.881 244.734 482.493 234.745 481.893 234.945ZM229.593 174.712C230.186 172.793 241.926 162.254 246.989 157.983C247.45 158.684 234.309 169.957 229.593 174.712ZM232.226 246.396C232.914 247.886 258.94 202.283 259.124 198.292C256.196 206.306 232.293 245.977 232.226 246.396ZM377.335 294.384C375.999 294.997 359.386 305.131 360.217 305.423C368.775 301.255 383.189 291.614 377.335 294.384ZM621.906 179.091C622.431 178.914 617.247 177.254 623.086 176.44C624.805 176.207 629.078 176.119 633.587 177.215C634.581 177.507 633.385 177.742 631.42 178.021C629.48 178.294 627.072 178.689 627.607 178.748C629.788 178.981 631.405 179.168 632.515 179.252C629.799 179.22 626.104 179.416 623.391 179.743C617.513 180.395 612.248 181.533 611.452 181.52C605.82 181.361 621.923 178.883 621.906 179.091ZM574.953 193.963C574.072 195.565 569.058 201.367 564.238 206.666C560.606 210.663 557.029 214.448 555.509 215.959C554.898 216.556 556.052 212.598 549.682 219.872C544.626 225.631 553.71 218.342 543.385 229.293C532.911 240.362 545.659 224.412 544.659 225.361C543.422 226.576 528.067 244.595 527.802 243.278C527.593 242.363 545.03 224.077 549.033 219.345C554.239 213.237 546.779 219.574 555.872 209.856C561.562 203.75 560.216 208.74 561.473 207.507C561.638 207.344 562.235 206.642 563.08 205.637C567.767 200.115 579.706 185.441 574.918 193.992C574.929 193.982 574.941 193.972 574.953 193.963ZM634.26 179.282C633.871 179.321 633.315 179.313 632.515 179.252C633.195 179.257 633.803 179.269 634.26 179.282ZM56.8675 347.678C59.9328 344.893 57.5159 348.098 53.3787 352.889C51.3162 355.275 48.8621 358.025 46.1426 360.892C44.7955 362.309 43.3566 363.789 41.6086 365.481C40.5973 366.459 39.6511 367.368 37.933 368.896C37.588 369.199 36.9096 369.798 36.2386 370.361C35.4972 370.981 34.9223 371.459 33.6189 372.46C32.1099 373.599 30.2546 374.993 26.9193 376.913C24.5189 378.21 20.2676 380.795 11.8405 382.842C9.68798 383.341 7.20514 383.79 4.29484 384.053C2.83951 384.184 1.27826 384.267 -0.396403 384.274C-0.821419 384.276 -1.21763 384.273 -1.69392 384.264C-2.46504 384.25 -3.26225 384.218 -4.07876 384.167C-5.71274 384.065 -7.43824 383.884 -9.23971 383.599C-23.7956 382.27 -43.2692 368.374 -49.252 354.893C-49.5542 352.72 -49.1713 361.016 -32.2241 374.198C-24.0103 380.41 -9.92865 384.482 -0.901538 384.159C4.97358 384.18 10.3207 383.213 14.5559 381.974C18.8193 380.727 22.0725 379.254 24.6382 377.922C25.2802 377.587 25.8802 377.258 26.4439 376.937C26.7592 376.756 27.0659 376.576 27.3645 376.397C27.9615 376.039 28.5255 375.685 29.058 375.34C31.16 373.977 32.9099 372.63 34.0567 371.691C37.8992 368.471 39.2265 366.909 40.636 365.452C43.3664 362.531 45.4424 360.157 47.7155 357.638C52.0911 352.758 56.4151 348.081 56.8675 347.678ZM621.742 170.798C613.944 164.814 610.452 157.689 609.261 155.018C607.97 152.032 607.808 151.235 607.578 150.727C607.39 150.258 607.29 150.112 607.218 150.132C607.15 150.159 607.113 150.362 607.151 150.831C607.456 151.707 606.723 153.848 612.308 162.753C615.093 167.036 620.475 172.243 625.228 174.996C629.997 177.848 633.237 178.69 634.568 179.09C635.44 179.351 635.016 179.293 634.26 179.282C635.317 179.169 635.345 178.682 634.803 178.091C633.557 176.969 632.328 178.048 621.742 170.798ZM304.764 78.2755C304.587 78.4513 304.309 78.6141 303.866 78.6118C304.122 78.2985 304.307 78.2186 304.451 78.1835C304.594 78.1548 304.695 78.1753 304.764 78.2755ZM294.099 117.231C289.669 134.364 301.131 100.445 299.638 100.816C299.405 100.676 294.397 116.453 294.099 117.231ZM512.367 219.27C510.906 219.864 528.408 207.369 508.009 219.389C505.732 220.75 502.916 222.463 499.546 224.564C518.279 215.438 498.983 225.878 499.399 226.086C499.841 226.26 503.854 224.291 509.141 221.604C518.979 216.558 533.344 209.315 537.884 207.571C542.416 203.366 517.55 216.979 512.406 219.251C512.393 219.257 512.38 219.264 512.367 219.27ZM384.966 393.377C387.627 389.203 398.832 378.462 406.178 371.122C403.551 375.311 392.373 386.075 384.966 393.377ZM698.967 733.624C694.887 689.318 705.199 659.948 706.888 656.363C709.52 652.18 700.834 672.451 699.838 714.393C699.554 716.161 699.697 738.956 698.967 733.624ZM1064.71 214.849C1070.23 210.815 1057.25 228.213 1047.59 238.953C1045.42 241.388 1036.36 249.561 1044.68 238.604C1046.23 240.407 1060.18 224.311 1064.71 214.849ZM608.9 148.892C609.189 148.004 609.433 147.646 609.444 148.18C609.458 148.681 609.178 149.866 608.614 151.178C608.358 151.746 608.354 151.56 608.15 151.868C607.961 152.131 607.588 152.719 607.133 153.414C607.266 152.797 607.497 152.083 607.572 151.7C607.613 151.505 607.615 151.402 607.613 151.333C607.612 151.257 607.613 151.215 607.714 150.88C608.502 148.566 608.416 146.738 608.9 148.892ZM805.426 474.872C806.284 474.232 807.103 473.606 807.879 472.998C812.838 469.062 815.225 465.63 814.207 466.233C812.166 467.437 809.236 469.696 806.917 471.709C802.427 475.508 799.721 478.622 805.426 474.872ZM609.268 178.227C608.683 177.837 617.211 175.537 622.982 175.31C625.832 175.165 628.418 175.482 628.811 176.154C627.674 176.118 625.393 176.175 623.081 176.387C617.507 176.821 609.719 178.443 609.268 178.227ZM399.252 379.863C402.667 376.984 386.84 393.866 381.552 398.574C381.405 397.591 397.026 381.763 399.252 379.863ZM899.22 401.581C902.056 399.215 907.239 394.6 910.888 390.931C913.557 388.274 915.583 386.097 915.921 385.398C916.347 384.493 913.626 386.926 910.204 390.214C905.923 394.363 900.047 400.066 899.22 401.581ZM1165.84 784.09C1165.58 784.394 1167.83 776.72 1172.98 765.459C1179.16 753.3 1181.37 749.832 1183.95 745.613C1187.19 740.515 1186.98 741.594 1185.19 745.414C1184.29 747.336 1182.98 749.883 1181.3 752.911C1179.61 756.052 1177.61 759.185 1174.08 766.029C1168.93 776.504 1166.14 783.703 1165.84 784.09ZM748.376 551.315C737.172 572.958 749.312 548.89 747.496 549.115C740.103 564.589 726.943 599.685 737.82 575.894C739.932 571.319 745.008 558.361 748.376 551.315ZM759.582 530.168C760.276 527.424 770.041 508.739 760.606 524.151C756.42 531.28 752.487 543.053 759.582 530.168ZM1228.98 638.916C1236.55 622.003 1207.87 701.703 1206.06 702.857C1205.48 703.906 1205.03 704.663 1204.75 705.044C1204.1 707.978 1198.01 722.023 1196.22 722.924C1198.19 719.014 1203.08 707.472 1203.71 706.231C1204 705.673 1204.23 705.254 1204.41 704.972C1205.96 700.162 1227.9 642.536 1228.98 638.916ZM1300.8 586.297C1305.48 583.994 1308.81 583.21 1307.34 583.658C1306.58 583.828 1304.21 584.396 1299.58 584.116C1295.02 583.93 1288.94 582.046 1286.98 581.289C1267.74 571.456 1266.31 562.664 1264.73 561.676C1264.11 560.771 1264 560.765 1264.32 561.518C1264.69 562.322 1265.29 563.65 1267.2 566.419C1271.08 572.117 1278.12 578.726 1286.43 582.467C1288.62 583.56 1292.62 584.963 1295.54 585.55C1298.62 586.202 1300.76 586.359 1302.35 586.442C1305.45 586.563 1306.57 586.399 1307.26 586.361C1307.94 586.301 1308.12 586.275 1308.21 586.266C1308.29 586.255 1308.24 586.258 1308.19 586.256C1308.06 586.254 1307.85 586.236 1307.77 586.161C1307.68 586.09 1307.67 585.974 1307.71 585.833C1307.8 585.55 1308.04 585.189 1307.99 584.953C1307.96 584.712 1307.59 584.584 1307.66 584.541C1307.82 584.464 1308.11 584.435 1307.6 584.621C1307.15 584.793 1305.97 585.208 1304.78 585.635C1302.27 586.515 1299.57 587.429 1300.85 586.28C1300.84 586.286 1300.82 586.292 1300.8 586.297ZM1238.48 611.257C1238.43 611.452 1238.12 612.455 1237.66 613.935C1236.04 619.096 1232.63 629.479 1232.39 630.047C1228.82 638.504 1233.76 622.867 1236.86 613.686C1238.76 608.088 1240.01 605.095 1238.48 611.257ZM499.523 280.54C490.271 289.826 498.116 279.53 504.402 273.532C504.941 273.024 507.637 272.375 499.523 280.54ZM766.491 518.013C766.925 516.76 787.337 488.779 808.785 474.21C823.729 463.052 836.857 452.966 834.47 453.51C832.512 455.09 820.926 463.548 807.979 473.13C794.693 482.625 779.588 497.781 772.051 508.537C764.368 519.225 761.873 524.484 766.491 518.013ZM1148.43 92.6967C1148.46 92.6166 1148.24 93.0705 1148.05 93.3551C1147.87 93.6456 1147.68 93.863 1147.56 93.9189C1147.31 94.0537 1147.33 93.5013 1147.36 92.9399C1147.38 92.6447 1147.39 92.3794 1147.34 92.2803C1147.3 92.1943 1147.18 92.2922 1146.92 92.9719C1146.67 93.7298 1146.24 94.9057 1145.83 98.121C1145.58 101.184 1144.73 106.802 1147.87 116.751C1149.09 120.371 1150.29 122.536 1150.57 123.016C1150.89 123.526 1150.19 122.11 1149.34 119.865C1147.34 115.156 1145.98 106.492 1146.41 102.158C1146.7 97.3804 1147.47 95.2603 1147.84 94.0939C1148.25 92.9523 1148.41 92.7683 1148.43 92.6967ZM577.68 185.737C566.136 191.146 567.282 186.873 578.134 184.213C578.556 184.113 578.139 185.527 577.68 185.737ZM1095.18 175.836C1096.65 173.547 1098.01 171.438 1099.21 169.569C1114.79 145.394 1116.76 147.873 1102.02 171.416C1097.9 178.03 1091.86 186.709 1083.71 197.04C1084.59 195.376 1085.43 193.759 1086.29 192.095C1044.41 246.385 1083.81 195.557 1092.51 181.999C1095.92 176.857 1092.15 180.513 1095.15 175.867C1095.16 175.857 1095.17 175.847 1095.18 175.836ZM1136.63 133.346C1107.11 131.346 1140.8 129.435 1161.74 132.215C1161.54 132.238 1161.77 132.382 1161.62 132.358C1161.44 132.193 1160.86 132.378 1157.99 128.799C1145.66 110.38 1149.7 102.498 1149.31 99.2564C1149.42 102.701 1146.14 111.871 1157.82 128.93C1159.85 131.763 1160.45 132.199 1160.82 132.699C1161.16 133.115 1161.18 133.244 1161.2 133.381C1161.19 133.626 1161.24 133.825 1161.34 134.033C1161.44 134.237 1161.44 134.434 1161.19 134.645C1161.06 134.75 1160.9 134.859 1160.7 134.962C1160.6 135.012 1160.49 135.063 1160.31 135.079C1160.12 135.088 1159.88 135.09 1159.32 134.827C1160.15 135.433 1160.24 135.427 1160.48 135.538C1160.69 135.62 1160.93 135.679 1161.24 135.712C1157.27 135.13 1151.85 134.784 1149.59 134.554C1147.03 134.318 1146.26 134.132 1146.34 133.953C1146.53 133.594 1150.03 133.354 1149.14 133.263C1146.71 132.978 1138.4 133.492 1136.63 133.346ZM1129.31 125.801C1128.11 127.986 1116.72 144.016 1112.93 150.058C1117.32 140.763 1137.65 111.021 1129.31 125.801ZM1164.28 644.998C1165.32 643.263 1168.74 640.802 1183.33 634.825C1179.06 637.356 1170.06 641.889 1164.28 644.998ZM-26.1058 273.878C-20.6639 264.48 -9.66014 245.918 -13.9864 251.075C-14.4246 251.652 -26.6678 273.483 -26.1058 273.878ZM943.874 361.655C945.727 360.428 984.609 317.867 970.254 331.749C966.131 336.199 930.27 374.071 943.874 361.655ZM728.853 603.008C730.544 598.297 737.916 578.243 737.875 577.735C737.448 576.011 728.639 600.763 728.853 603.008ZM1.80004 226.896C2.63496 225.711 18.4012 196.854 16.1326 199.744C11.9315 205.214 -0.933621 230.947 1.80004 226.896ZM468.654 317.002C466.772 319.028 463.327 320.784 462.666 321.45C461.124 323.111 426.343 359.569 438.606 344.635C440.726 342.243 491.432 290.349 497.882 283.523C501.689 282.042 479.186 303.434 474.098 308.976C473.205 309.958 473.65 311.605 468.665 316.981C468.662 316.988 468.658 316.995 468.654 317.002ZM1238.66 611.002C1240.47 608.782 1293.71 586.085 1292.92 588.316C1275.63 594.897 1257 602.959 1238.66 611.002ZM1211.09 622.79C1202.95 625.784 1212.89 621.094 1222.57 616.849C1227.29 614.779 1231.67 612.937 1234.35 611.902C1234.51 612.25 1228.87 614.906 1222.9 617.608C1217.55 620.031 1211.89 622.501 1211.09 622.79ZM798.863 487.999C804.739 482.208 785.079 498.341 789.004 494.304C791.425 491.193 805.603 479.662 809.551 476.365C810.736 475.131 795.792 484.94 791.745 489.224C786.123 494.837 792.408 490.217 786.35 496.456C766.048 518.214 755.434 539.547 746.953 558.733C746.196 560.475 752.903 547.172 746.38 562.193C745.36 564.538 738.462 577.867 732.334 594.963C727.113 614.643 721.476 630.63 714.991 647.99C706.383 671.5 702.373 697.423 704.631 727.023C703.814 725.167 706.965 678.701 708.917 675.624C710.495 667.507 712.798 658.303 716.358 648.474C732.03 608.65 746.388 553.386 777.628 510.64C787.288 498.584 782.019 503.913 786.424 498.845C790.096 495.098 786.631 500.097 798.863 487.999ZM-28.2373 279.336C-24.3284 275.537 -16.2187 259.313 -10.4616 249.274C-13.6571 252.15 -22.295 269.567 -28.2373 279.336ZM964.833 730.418C959.523 732.804 942.573 739.652 941.44 740.634C939.833 741.992 964.185 731.841 964.833 730.418ZM266.02 516.955C265.648 517.367 255.444 526.905 255.031 527.226C245.138 534.9 275.707 506.331 266.02 516.955ZM19.9508 746.683C12.2068 754.652 4.38868 763.624 0.654402 765.956C6.17799 759.982 20.2495 745.129 19.9508 746.683ZM386.184 602.586C383.413 602.649 409.651 584.185 414.524 580.695C413.199 582.593 388.112 602.59 386.184 602.586ZM1160.12 641.293C1178.01 633.468 1173.25 632.9 1185.02 628.909C1186.89 628.288 1195.01 630.269 1174.61 637.203C1170.94 638.455 1184.27 631.217 1160.12 641.293ZM1077.93 204.756C1075.96 209.21 1066.62 220.944 1060.22 228.915C1061.05 226.625 1073.76 210.542 1077.93 204.756ZM31.3994 175.617C34.4668 171.668 41.4389 158.63 45.6053 149.562C49.316 141.576 51.4021 136.263 48.9841 140.146C48.7206 140.58 47.0015 144.186 44.6611 149.09C40.4063 158.098 33.2575 172.247 31.3994 175.617ZM608.111 160.472C601.791 170.945 615.421 152.908 613.57 152.819C613.767 151.875 613.809 151.098 613.739 150.549C613.676 150.926 613.479 151.674 613.106 152.665C612.849 153.331 612.761 153.431 612.497 153.898C612.24 154.341 611.761 155.14 611.132 156.097C609.871 158.031 608.247 160.225 608.111 160.472ZM296.876 668.812C297.446 668.322 312.451 657.153 313.065 656.763C325.897 648.644 283.954 679.867 296.876 668.812ZM102.872 671.196C100.209 674.523 85.1502 688.253 73.0232 698.896C66.3423 704.768 60.659 709.648 57.8276 711.837C59.7687 709.408 65.2044 704.033 71.9478 697.734C86.6091 684.035 106.487 666.716 102.872 671.196ZM1086.86 674.606C1099.6 668.885 1111.8 663.792 1123.71 658.962C1121.58 660.81 1088.44 674.577 1086.86 674.606ZM351.039 627.849C351.83 627.261 352.653 626.758 353.412 626.198C352.605 626.763 351.811 627.311 351.039 627.849ZM792.91 797.116C785.62 799.058 781.004 800.171 779.788 800.739C778.336 801.34 780.004 801.448 780.603 801.358C796.074 798.708 808.05 792.652 792.91 797.116ZM-19.6929 268.829C-16.498 265.965 -7.76085 248.406 -1.9801 238.779C-4.50695 241.093 -15.3234 260.856 -19.6929 268.829ZM1091.94 133.245C1078.2 132.908 1133.38 126.255 1144.02 128.341C1145.24 128.495 1094.09 132.57 1091.94 133.245ZM616.091 149.339C616.741 149.434 616.104 151.287 621.854 159.041C624.713 162.688 629.266 166.051 632.105 167.459C635.027 168.96 636.325 169.279 636.817 169.528C637.018 169.693 636.647 169.75 636.479 169.85C636.285 169.945 636.277 170.06 636.485 170.183C636.607 170.264 636.878 170.359 636.632 170.317C636.058 170.162 634.538 169.911 631.133 168.147C627.817 166.513 622.742 162.365 620.08 158.458C614.81 150.306 616.099 149.352 616.091 149.339ZM1162.28 130.095C1162.46 129.968 1162.75 130.295 1162.61 130.574C1162.49 130.86 1161.93 130.989 1161.97 131.404C1162.05 132.384 1162.2 130.147 1162.28 130.095ZM870.041 435.074C872.219 433.765 895.837 413.345 885.132 420.585C877.714 425.595 877.497 427.681 875.831 429.006C874.196 430.479 831.875 460.202 870.041 435.074ZM821.399 274.315C831.194 266.601 843.506 258.171 854.013 250.477C850.015 254.192 826.191 271.865 821.399 274.315ZM586.005 191.589C587.051 190.698 600.981 174.862 608.196 164.918C611.883 159.899 613.417 157.078 613.519 156.594C613.474 156.206 613.385 156.648 607.7 163.94C607.501 165.011 579.495 197.367 586.005 191.589ZM1160.12 641.293C1157.82 642.298 1155.25 643.383 1152.19 644.626C1155.2 643.334 1157.79 642.266 1160.12 641.293ZM956.512 731.157C960.327 728.655 939.418 737.508 933.292 740.582C931.756 742.289 956.013 731.506 956.512 731.157ZM854.171 249.02C859.744 244.406 871.252 236.634 878.605 231.265C877.897 232.651 857.033 247.828 854.171 249.02ZM431.398 563.808C443.6 555.153 458.113 543.976 457.82 543.091C458.151 543.014 458.819 542.695 459.868 542.089C460.943 541.463 473.432 531.543 479.174 527.599C513.463 504.01 351.538 625.058 443.645 552.547C439.571 556.295 435.469 560.063 431.398 563.808ZM147.81 632.532C154.773 627.563 171.182 610.518 166.396 614.375C163.08 617.061 140.863 637.485 147.81 632.532ZM138.51 783.254C136.259 784.703 118.286 799.068 118.033 799.957C129.057 792.49 148.385 776.976 138.51 783.254ZM196.285 589.275C200.3 585.758 204.032 579.905 203.532 580.268C199.192 583.453 189.103 594.642 196.285 589.275ZM1121.21 653.459C1113.76 656.228 1091.25 667.61 1086.69 670.887C1085.67 671.099 1083.02 671.959 1078.27 673.692C1078.28 673.685 1078.3 673.679 1078.31 673.673C1072.07 676.151 884.671 757.915 1011.13 704.786C1015.11 703.107 1009.29 704.556 1025.35 697.657C1026.41 697.204 1027.27 697.742 1030.54 696.339C1038.08 693.109 1078.17 675.898 1085.9 671.72C1086.03 671.832 1086.61 671.737 1087.76 671.372C1098.08 668.113 1126.98 651.311 1121.21 653.459ZM175.188 755.557C171.337 758.062 159.741 767.135 158.863 768.719C164.903 764.645 184.244 749.66 175.188 755.557ZM589.924 191.691C596.598 185.035 609.288 167.291 604.689 172.073C602.328 174.812 582.589 199.227 589.924 191.691ZM55.5509 844.703C101.949 812.335 66.5089 836.756 72.9501 830.773C67.3701 835.321 61.7421 839.902 55.5509 844.703ZM1262.45 556.705C1264.79 549.216 1264.49 558.556 1260.7 567.062C1259.51 569.718 1261.13 560.937 1262.45 556.705ZM1176.47 964.686C1174.35 962 1177.42 964.291 1180.44 966.716C1193.34 977.668 1212.32 984.51 1197.49 979.372C1196.88 979.169 1186.66 973.903 1179.68 967.622C1178.16 966.245 1176.61 964.843 1176.47 964.686ZM1228.73 667.095C1229.4 661.275 1230.51 657.835 1235.92 642.65C1228.64 665.34 1236.91 644.759 1228.73 667.095ZM457.608 543.077C457.716 543.061 457.804 543.043 457.82 543.091C457.706 543.117 457.642 543.109 457.608 543.077ZM233.342 554.178C239.064 550.319 252.854 537.225 247.973 540.304C247.501 540.613 234.831 551.674 233.342 554.178ZM1086.69 670.887C1087.6 670.699 1087.23 671.002 1085.9 671.72C1085.78 671.614 1086.08 671.33 1086.69 670.887ZM159.097 624.562C159.096 623.454 137.506 642.989 136.728 643.833C125.432 656.199 150.35 632.737 159.097 624.562ZM581.151 174.531C579.922 175.027 588.692 174.307 593.321 172.144C596.951 170.419 585.818 172.543 581.151 174.531ZM1209.8 717.098C1206.41 724.974 1201.33 735.498 1199.45 736.93C1202.11 732.204 1209.21 716.737 1209.8 717.098ZM1160.97 946.394C1155.4 939.924 1147.12 924.45 1146.59 907.875C1145.83 895.95 1145.64 881.72 1146.42 869.858C1147.31 869.972 1146.6 891.659 1147.42 907.84C1147.74 925.447 1156.84 941.322 1160.97 946.394ZM1144.25 643.856C1143.56 644.088 1122.27 653.045 1125.56 652.719C1130.42 652.225 1150.41 641.736 1144.25 643.856ZM617.295 166.573C624.814 164.859 606.991 164.858 598.159 169.284C594.041 171.06 616.428 166.368 617.295 166.573ZM277.546 514.444C286.97 504.672 261.845 527.035 259.166 531.038C263.768 526.815 274.197 517.92 277.546 514.444ZM106.045 803.962C69.4546 827.202 91.8251 817.723 97.6536 812.786C98.5212 812.056 107.002 803.344 106.045 803.962ZM92.272 146.095C92.5372 146.199 92.5878 146.288 92.5349 146.38C92.4737 146.469 92.3087 146.562 91.929 146.606C91.2241 146.67 89.4336 146.664 86.2219 145.038C80.9579 142.383 73.8521 135.088 71.1962 128.512C68.3488 121.944 68.3045 117.825 68.2138 115.488C68.2797 110.969 68.7235 110.951 68.9437 110.637C69.061 110.566 69.1489 110.62 69.1985 110.862C69.253 111.127 69.2332 111.53 69.1895 113.057C69.2546 114.607 68.7875 117.275 70.678 123.93C72.1198 130.481 80.273 141.002 86.7881 144.051C90.3572 145.89 91.8205 145.858 92.272 146.095ZM624.051 416.862C622.586 417.973 621.184 419.036 619.768 420.11C620.805 419.268 622.168 418.225 624.051 416.862ZM368.941 432.062C362.448 436.818 358.045 440.26 354.949 442.893C346.419 450.131 348.538 450.628 347.156 451.958C343.095 455.851 332.859 464.126 325.337 471.654C333.767 462.826 342.128 454.019 350.496 445.148C343.516 451.724 282.095 508.435 281.233 510.103C280.124 512.578 298.961 494.191 299.571 493.717C300.458 493.047 305.393 492.257 307.229 490.647C309.503 488.669 338.384 461.015 356.105 444.074C362.098 438.359 366.795 433.927 368.941 432.062ZM3.69676 773.928C-2.04315 780.015 -4.6579 781.492 -7.94162 786.675C-8.52809 787.63 -8.64809 788.33 -9.22707 789.867C-9.52517 790.66 -9.91939 791.616 -10.644 793.261C-11.3797 795.05 -12.5252 797.084 -14.2426 802.764C-11.462 794.156 -9.27541 791.512 -7.64715 788.729C-5.99494 786.154 -4.58909 784.243 -3.32859 782.57C-0.737768 779.159 1.46352 776.535 3.69676 773.928ZM404.235 391.346C411.174 386.261 383.904 412.856 382.908 413.592C377.684 417.542 398.567 395.556 404.235 391.346ZM170.37 615.415C171.497 614.482 193.244 594.839 192.602 594.435C186.529 599.344 157.608 625.942 170.37 615.415ZM49.4089 845.396C60.028 838.395 75.792 827.999 73.1224 827.989C73.1099 827.998 73.0974 828.007 73.0849 828.016C65.5674 833.652 58.6695 838.961 49.4089 845.396ZM638.357 162.911C638.255 162.6 637.533 162.26 636.907 162.031C636.261 161.795 635.632 161.64 635.145 161.551C634.158 161.375 633.749 161.45 633.929 161.657C634.095 161.865 634.843 162.211 635.821 162.635C636.741 163.043 638.12 163.618 638.133 163.934C637.764 163.985 636.204 164.019 632.399 161.903C630.582 160.439 629.944 159.554 630.25 159.614C630.536 159.635 631.726 160.431 633.132 161.165C634.541 161.914 636.02 162.499 636.911 162.746C637.831 163.006 638.22 163.014 638.363 162.955C638.364 162.942 638.361 162.927 638.357 162.911ZM595.704 165.679C591.419 165.314 544.028 183.992 551.843 182.682C554.616 181.794 581.317 170.445 582.552 170.43C584.452 169.99 576.439 174.044 590.529 169.346C589.524 169.082 597.281 165.387 595.704 165.679ZM630.559 160.629C626.746 160.014 623.587 160.132 621.611 160.459C616.956 161.251 616.964 162.647 621.803 162.533C622.516 162.531 623.364 162.5 624.35 162.441C628.216 162.192 632.408 160.954 630.559 160.629ZM620.169 160.551C620.626 159.909 621.164 159.095 621.595 158.355C622.041 157.575 622.339 157.034 622.765 155.863C624.115 152.358 624.336 147.908 623.427 146.867C623.565 148.214 623.213 152.025 621.928 155.586C621.323 157.282 620.958 158.037 619.689 160.207C618.468 162.261 616.646 164.935 614.55 167.773C614.145 169.494 618.335 163.237 620.183 160.529C620.178 160.536 620.174 160.544 620.169 160.551ZM1281.59 996.698C1270.01 989.197 1298.28 1004.35 1299.88 1005.76C1303.23 1008.67 1286.6 999.881 1281.59 996.698ZM-1.29819 161.006C-4.40435 163.451 -7.40789 164.331 -12.6411 171.517C-6.12762 165.325 0.873982 159.846 8.25184 155.292C12.2208 149.323 2.03496 158.192 -1.29819 161.006ZM-29.8185 182.405C-29.0519 181.336 -36.3207 185.159 -24.3134 172.559C-18.822 167.124 -33.5946 187.296 -42.4945 206.323C-47.2429 215.904 -51.6522 224.491 -53.7828 227.662C-51.5308 222.284 -47.4936 214.111 -43.3129 205.912C-38.5811 196.541 -32.9905 187.54 -29.8185 182.405ZM-92.5629 274.486C-93.1802 274.984 -83.6657 252.667 -82.2769 250.323C-75.1932 237.48 -89.7601 271.224 -92.5629 274.486ZM-59.3042 205.437C-62.6127 211.189 -60.2752 205.758 -57.0175 199.023C-54.5939 193.994 -51.5167 188.466 -49.7481 185.756C-49.169 185.575 -53.3575 193.312 -56.2817 199.393C-57.7794 202.461 -58.9956 204.895 -59.3042 205.437ZM1206.83 885.003C1209.29 873.781 1204.82 863.877 1205.17 880.953C1205.19 881.785 1206.71 885.484 1206.83 885.003ZM-86.1181 251.404C-80.756 241.43 -90.8954 264.318 -94.1804 271.162C-95.0951 271.487 -86.9681 252.882 -86.1181 251.404ZM1212.63 877.296C1215.05 863.555 1209.22 868.122 1208.78 869.723C1207.33 875.461 1208.85 895.631 1210.19 905.19C1210.37 905.775 1210.56 906.104 1210.68 906.297C1210.59 905.966 1210.52 905.596 1210.48 905.178C1208.92 869.848 1211.9 884.043 1212.63 877.296ZM1229.57 815.097C1234.63 801.575 1219.21 835.181 1217.88 842.799C1220.67 835.86 1228.13 818.824 1229.57 815.097ZM1271.57 735.307C1275.09 727.764 1284.3 705.225 1284.8 701.054C1281.98 709.465 1272.17 731.742 1271.57 735.307ZM1281.11 718.976C1286.9 707.394 1284.61 703.33 1280.31 717.493C1280.14 718.035 1280.88 719.379 1281.11 718.976ZM1306.15 651.838C1310.08 644.274 1309.57 634.363 1305.46 647.014C1304.2 650.865 1305.72 652.631 1306.15 651.838ZM1220.14 863.035C1220.38 862.291 1220.64 861.824 1220.15 862.903C1223.51 854.414 1224.7 847.684 1218.19 862.068C1218.4 861.463 1218.32 861.493 1218.2 861.931C1218.23 861.524 1218.27 861.358 1217.95 861.967C1220.61 854.911 1223.19 847.865 1225.72 840.891C1221.31 850.433 1218.64 856.909 1216.95 861.543C1217.23 861.064 1217.23 861.228 1217.27 861.471C1217.3 861.732 1217.32 862.117 1217.35 862.519C1217.41 863.328 1217.52 864.154 1217.63 864.937C1217.86 866.513 1218.06 867.867 1217.81 870.403C1216.92 881.249 1214.34 880.787 1213.47 878.275C1214.06 882.366 1214.41 892.453 1215.23 904.977C1215.32 905.454 1215.41 905.546 1215.49 905.631C1215.57 905.715 1215.66 905.888 1216.14 906.495C1217.03 907.706 1219.85 910.336 1224.47 914.056C1225.68 915.049 1228.58 916.519 1232.24 917.664C1228.67 916.294 1225.9 914.58 1224.97 913.456C1220.66 909.686 1218.03 906.905 1217.42 905.672C1217.09 905.057 1217.18 904.93 1217.3 904.988C1217.42 905.041 1217.51 905.174 1217.58 904.878C1217.45 894.514 1217.62 884.889 1218.04 877.602C1218.35 871.96 1218.05 866.537 1218.7 863.549C1218.96 862.389 1219.14 862.172 1219.29 862.089C1219.43 862.024 1219.58 862.092 1219.7 862.203C1219.96 862.391 1220.09 863.159 1220.13 863.053C1220.13 863.047 1220.13 863.041 1220.14 863.035ZM1333.54 561.492C1337.54 548.449 1336.76 540.648 1335.98 545.933C1335.07 550.714 1332.62 559.182 1331.05 566.37C1330.94 567.005 1333.35 562.186 1333.54 561.492ZM-109.097 277.612C-94.2663 246.843 -103.008 269.566 -75.8874 206.7C-86.6409 233.322 -75.2519 208.751 -76.968 214.152C-78.3636 218.455 -86.1549 233.382 -80.7062 225.134C-84.1483 230.599 -91.8134 245.948 -98.4678 260.636C-101.811 268.013 -104.876 275.134 -107.228 281.143C-108.411 284.178 -109.405 286.855 -110.284 289.688C-110.513 290.434 -110.703 291.08 -110.937 291.972C-111.046 292.388 -111.148 292.802 -111.244 293.215C-111.365 293.745 -111.481 294.297 -111.584 294.863C-111.674 297.011 -113.593 300.587 -110.132 310.706C-110.62 309.484 -110.96 308.387 -111.216 307.403C-110.704 309.381 -109.932 311.531 -108.673 313.831C-106.741 317.434 -103.355 321.187 -99.68 323.538C-92.0114 328.332 -86.6269 327.861 -85.3256 328.074C-83.9063 328.045 -85.1312 328.52 -90.1771 327.724C-94.9277 327.372 -105.727 321.501 -109.338 313.782C-111.898 309.175 -112.664 304.849 -112.911 301.878C-113.104 299.604 -113.09 298.335 -113.039 296.897C-113.026 296.564 -113.003 296.192 -112.99 295.934C-112.983 295.706 -112.973 295.481 -112.962 295.259C-112.94 294.815 -112.912 294.383 -112.879 293.959C-112.848 293.549 -112.797 293.08 -112.771 292.749C-112.749 292.43 -112.722 292.11 -112.691 291.787C-112.176 286.763 -111.473 283.014 -109.097 277.612ZM1279.99 738.718C1287.12 732.546 1282.27 726.923 1291.34 712.987C1294.74 690.812 1269.19 769.279 1258.65 776.549C1299.65 694.4 1226.7 828.782 1262.2 774.458C1248.22 798.061 1246.18 800.243 1247.37 799.774C1248.34 799.294 1252.56 794.204 1250.91 797.73C1250.06 799.576 1248.21 802.833 1247.61 804.138C1243.83 811.707 1237.86 825.752 1239.36 825.152C1239.36 825.139 1239.37 825.125 1239.37 825.111C1242.45 817.644 1245.58 810.236 1248.45 804.574C1250.32 800.969 1256.73 790.705 1260.95 782.71C1249.14 797.128 1268.54 764.177 1275.74 753.656C1277.21 748.739 1278.68 743.621 1279.99 738.718ZM1234.29 823.831C1234.71 822.979 1240.09 809.455 1243.63 802.075C1244.19 800.769 1245.59 798.248 1246.42 796.661C1247.3 794.98 1247.71 794.06 1247.36 794.393C1246.76 795.217 1244.08 799.431 1242.89 801.696C1237.02 813.04 1227.54 838.378 1234.29 823.831ZM1241.97 918.275C1233.6 916.36 1226.8 913.087 1225.99 912.237C1222.45 909.421 1220.6 908.034 1219.43 907.441C1220.62 908.641 1222.57 910.385 1225.47 912.853C1226.52 914.573 1236.63 918.11 1241.97 918.275ZM1085.77 592.598C1070.67 600.46 1118.6 579.492 1104.28 584.503C1103.58 584.745 1086.53 592.206 1085.77 592.598ZM1294 701.09C1301.22 684.82 1294.59 691.296 1291.06 704.035C1290.86 704.767 1293.66 701.86 1294 701.09ZM-98.6602 252.242C-99.2054 250.551 -78.1219 207.999 -74.2762 200.617C-75.7134 205.168 -98.3214 253.715 -98.6602 252.242ZM1268.05 921.943C1266.31 921.067 1264.54 920.218 1262.73 919.393C1239.25 911.125 1228.75 909.411 1228.56 909.159C1223.23 905.337 1222.01 904.547 1221.64 904.133C1220.8 903.094 1223.39 903.553 1223.24 903.317C1223.1 903.176 1222.09 902.027 1222.18 902.095C1222.2 902.119 1222.45 902.533 1222.66 903.152C1222.87 903.76 1222.95 904.458 1222.94 904.652C1222.47 894.85 1222.41 885.902 1222.37 885.064C1222.29 883.758 1220.04 890.574 1219.39 882.789C1219.67 886.799 1219.9 894.825 1220.43 904.758C1220.46 904.788 1220.44 904.374 1220.31 903.964C1220.2 903.553 1219.99 903.264 1220.19 903.538C1220.51 904.076 1222.91 906.526 1227.57 910.343C1228.39 912.438 1247.93 917.237 1249.57 917.521C1251.12 917.813 1246.67 916.119 1245.64 915.425C1245.11 915.07 1245.25 914.916 1247.27 915.336C1249.43 915.86 1252.94 916.429 1262.58 919.843C1264.18 920.461 1265.98 921.152 1268.01 921.928C1268.02 921.933 1268.04 921.938 1268.05 921.943ZM1221.18 902.885C1220.98 902.832 1220.89 902.953 1220.8 903.003C1220.7 903.065 1220.62 903.093 1220.61 903.234C1220.6 903.367 1220.69 903.662 1220.76 904.023C1220.83 904.378 1220.85 904.732 1220.84 904.74C1220.63 899.901 1220.58 895.275 1220.66 893.047C1221.03 884.148 1221.24 894.629 1221.75 904.702C1221.78 904.596 1221.66 903.877 1221.49 903.461C1221.32 903.023 1221.21 902.894 1221.18 902.885ZM1223.8 863.089C1225.43 859.957 1237.21 831.805 1237.15 829.264C1231.41 840.129 1222.83 863.44 1223.11 864.163C1223.13 864.16 1223.14 864.165 1223.15 864.178C1223.23 864.147 1223.44 863.799 1223.8 863.089ZM1330.7 511.298C1328.23 509.109 1325.16 507.039 1321.76 505.487C1317.98 503.562 1310.11 501.606 1305.36 501.587C1300.34 501.407 1296.92 501.888 1293.99 502.332C1288.18 503.292 1284.09 504.451 1280.3 505.546C1272.91 507.741 1267.59 509.785 1267.05 510.433C1270.78 509.039 1277.37 506.775 1285.32 504.7C1289.47 503.673 1293.61 502.594 1300.16 502.079C1306.05 501.15 1318.55 503.836 1321.69 505.641C1326.69 507.904 1329.49 510.35 1330.7 511.298ZM-0.459484 103.631C-15.284 111.153 18.8053 91.7895 25.0135 90.0048C25.3928 90.1798 20.4299 92.6774 13.877 95.9607C7.3806 99.1895 0.136002 103.298 -0.459484 103.631ZM1303.18 701.158C1304.26 698.773 1314.73 668.882 1323.2 640.677C1329.84 618.916 1336.23 597.765 1337.81 591.775C1335.78 597.551 1328.96 618.669 1322.09 640.327C1313.44 667.964 1303.25 696.906 1302.54 699.272C1302.22 700.476 1302.92 701.738 1303.18 701.158ZM1228.55 877.181C1229.63 884.365 1228.15 889.608 1228.13 890.568C1228.1 894.238 1228.23 899.481 1228.4 904.421C1228.36 903.37 1227.76 901.347 1227.21 900.583C1226.66 899.768 1226.32 899.747 1226.17 900.282C1226.79 901.1 1227.48 903.442 1227.44 904.462C1226.32 885.228 1227.02 865.935 1228.55 877.181ZM1297.37 495.836C1286.54 497.316 1284.51 498.552 1282.56 499.058C1280.94 499.613 1281.21 499.644 1282.73 499.324C1284.26 499.023 1287.02 498.316 1291.75 497.504C1294.27 497.106 1297.13 496.611 1302.1 496.488C1304.49 496.449 1307.77 496.522 1311.69 497.182C1315.58 497.777 1320.74 499.447 1323.85 500.949C1334.89 505.851 1341.7 515.681 1344.04 520.963C1345.48 524.019 1346.21 526.328 1346.77 528.36C1347.04 529.388 1347.27 530.361 1347.45 531.284C1347.62 532.091 1347.75 532.84 1347.86 533.568C1348.67 539.449 1348.44 542.249 1348.33 545.007C1348.02 550.059 1347.51 552.849 1347.16 555.226C1346.43 559.714 1346.16 561.478 1346.94 559.292C1347.01 558.988 1347.71 556.402 1348.52 551.273C1348.89 548.586 1349.39 545.538 1349.32 539.878C1349.19 536.893 1349.22 533.611 1347.36 526.959C1345.68 521.276 1340.37 507.635 1324.25 500.067C1317.89 496.909 1309.03 495.555 1305.2 495.552C1300.95 495.429 1298.74 495.706 1297.37 495.836ZM1299.73 711.653C1299.68 716.066 1271.01 784.909 1254.47 807.694C1252.11 812.158 1250.01 816.929 1249.01 819.198C1250.23 814.447 1251.83 810.407 1253.48 807.184C1254.71 804.733 1261.68 794.84 1267.25 784.284C1269.85 779.38 1268.4 780.31 1268.68 779.779C1272.99 771.348 1270.65 777.992 1273.26 772.875C1276.3 769.386 1302.56 701.279 1299.73 711.653ZM1229.36 881.347C1229.62 883.133 1229.76 892.697 1230.44 904.335C1230.46 903.37 1230.18 901.53 1229.58 900.011C1229 898.473 1228.29 897.512 1228.26 897.454C1228.08 897.319 1230.96 899.995 1234.09 902.551C1233.66 902.215 1233.71 902.302 1233.7 902.326C1233.66 902.438 1233.7 902.578 1233.69 902.676C1233.68 902.776 1233.62 902.837 1233.53 902.871C1233.34 902.95 1233.09 902.879 1233.47 903.289C1229.93 900.533 1227.21 898.001 1227.41 898.156C1227.46 898.225 1228.12 899.147 1228.66 900.539C1229.21 901.917 1229.48 903.535 1229.51 904.375C1229 892.335 1229.22 882.689 1229.36 881.347ZM1304.52 703.773C1303.42 714.516 1283.16 760.057 1294.87 728.132C1296 725.035 1301.86 712.648 1304.52 703.773ZM1310.2 493.731C1284.21 491.141 1257.42 505.327 1255.7 505.837C1257.67 505.219 1265.39 502.302 1275.03 499.239C1279.98 497.712 1285.11 496.105 1292.36 494.802C1296.04 494.193 1300.54 493.531 1306.91 493.879C1313.08 494.038 1321.89 496.749 1325.04 498.356C1341 506.535 1343 514.253 1343.67 514.256C1343.79 514.442 1343.16 513.211 1340.88 510.35C1338.66 507.7 1334.18 502.39 1325.14 498.124C1322.63 496.863 1316.33 494.459 1310.2 493.731ZM1352.21 559.393C1352.31 558.841 1351.47 561.172 1351.17 560.964C1351.02 560.851 1351.02 560.16 1351.31 558.066C1351.56 555.551 1352.41 553.493 1352.95 542.988C1352.96 541.916 1353.17 540.666 1353.09 536.989C1353.07 536.154 1352.99 534.774 1352.81 533.254C1352.63 531.711 1352.38 529.869 1351.65 526.984C1350.95 524.337 1349.83 520.385 1346.79 515.064C1343.68 509.61 1337.19 501.26 1326.06 496.117C1322.42 494.244 1314.91 491.848 1309.19 491.349C1303.34 490.731 1298.95 491.064 1295.31 491.481C1288.1 492.399 1283.05 493.851 1277.55 495.609C1272.44 497.261 1266.3 500.56 1266.74 500.474C1270.44 499.6 1274.92 498.247 1281.26 496.532C1284.46 495.698 1287.93 494.74 1293.4 493.838C1296.22 493.415 1299.45 492.922 1304.79 492.99C1309.7 492.896 1319.4 494.666 1325.37 497.62C1339.99 504.32 1346.53 516.523 1348.86 522.716C1351.26 529.1 1351.66 532.97 1352.03 536.221C1352.56 542.131 1352.28 545.313 1352.1 548.192C1351.66 553.726 1351.07 557.14 1350.57 560.281C1349.55 566.459 1348.73 570.562 1348.35 573.047C1347.54 577.613 1348.55 577.253 1352.21 559.393ZM1230.63 882.292C1231.35 879.618 1233.19 886.063 1232.31 892.331C1231.95 895.053 1230.56 889.915 1230.63 882.292ZM1188.42 532.886C1194.26 529.909 1191.97 530.58 1186 532.964C1174.34 537.589 1148.48 548.963 1146.73 549.964C1148.53 549.887 1178.21 537.314 1186.36 533.8C1187.49 533.312 1188.21 532.993 1188.42 532.886ZM24.4024 80.695C24.3933 80.6996 24.3842 80.7042 24.375 80.7089C26.0154 79.9282 26.7708 79.5664 27.2123 79.3989C35.3399 75.1695 28.0133 80.1838 28.7346 79.8077C48.2937 69.3989 58.4776 66.4578 62.2355 64.7009C66.2983 63.0256 64.6219 62.8345 68.9697 61.5532C78.1912 59.0358 83.3332 58.9981 89.9671 59.138C97.0685 60.2377 104.634 56.9032 129.892 68.9125C135.498 72.0233 142.526 77.6633 147.551 85.2961C142.51 77.6297 135.472 72.0039 129.891 68.9146C110.196 59.1129 102.402 61.1373 98.7336 60.5281C95.1684 60.5037 96.1835 60.6289 99.3149 60.9087C105.246 60.9215 123.104 65.736 129.072 70.3424C131.248 71.6557 132.673 72.7537 133.078 73.1229C135.635 75.6611 133.748 74.2569 128.475 71.3825C119.136 65.3244 89.745 59.4667 70.9151 64.5604C51.1611 68.57 36.0048 76.2557 28.2332 81.1335C28.2146 81.1482 28.1959 81.163 28.1769 81.1781C28.0695 81.2622 28.1366 81.2794 28.3076 81.2598C30.8619 80.0248 44.039 74.2351 38.5494 77.4388C35.9071 78.9769 32.7239 80.7574 29.1988 82.774C25.5347 84.8489 6.90526 91.7193 0.41564 94.2534C-2.96579 95.4862 -3.58109 95.2301 0.549372 92.625C4.19949 90.1836 15.1074 84.9317 24.4024 80.695ZM1232.6 897.171C1232.84 898.345 1233.05 900.875 1233.27 904.216C1233.55 902.536 1231.72 897.099 1230.55 896.027C1229.43 894.843 1231.59 897.42 1235.54 900.819C1234.7 900.328 1234.71 900.61 1234.75 900.814C1234.77 900.921 1234.76 901.021 1234.69 901.084C1234.62 901.151 1234.48 901.177 1234.39 901.229C1234.36 901.261 1234.25 901.191 1234.8 901.693C1231.08 898.762 1228.41 896.104 1229.18 896.918C1229.99 897.585 1231.89 902.717 1231.81 904.278C1231.68 897.517 1231.94 893.767 1232.6 897.171ZM408.382 468.999C418.85 459.836 392.425 478.231 388.179 482.426C386.061 484.518 403.763 473.038 408.382 468.999ZM225.85 601.094C212.975 611.06 201.444 625.089 217.526 612.139C219.321 610.695 227.669 600.463 225.85 601.094ZM1164.54 36.8941C1143.73 34.1415 1145.12 37.2463 1160.08 37.8518C1165.54 38.195 1165.27 37.0117 1164.54 36.8941ZM567.111 347.409C565.704 348.341 549.879 360.438 550.836 360.534C557.023 356.378 576.377 341.309 567.111 347.409ZM1171.94 37.2129C1164.55 36.7253 1167.22 37.5673 1175.21 38.9273C1184.82 40.4655 1198.05 44.4974 1209 49.8517C1200.28 44.5666 1184.01 38.8181 1175.38 37.7367C1173.51 37.4146 1172.25 37.2393 1171.94 37.2129ZM1322.5 671.05C1323.61 665.391 1327.11 654.225 1330.57 642.98C1332.51 636.696 1334.46 630.488 1335.93 625.574C1336.85 625.111 1334.42 633.472 1331.4 643.239C1328.1 653.952 1324.07 665.887 1322.5 671.05ZM282.712 560.372C270.875 570.624 298.162 551.141 294.818 551.905C294.465 552.076 283.175 559.966 282.712 560.372ZM896.691 531.037C905.29 523.522 875.571 544.115 884.492 539.449C884.905 539.224 896.207 531.464 896.691 531.037ZM821.914 631.566C825.053 623.379 837.593 592.221 831.863 603.986C830.925 605.572 821.352 630.506 821.914 631.566ZM70.3408 60.1037C66.486 60.429 74.5461 57.2412 88.4854 56.3172C101.82 54.635 124.778 61.1147 131.472 66.158C131.786 66.3413 132.085 66.5199 132.367 66.692C133.368 67.3158 132.975 67.0891 131.423 66.2428C128.137 64.1848 111.684 57.8943 98.7875 57.9705C85.5297 57.5001 75.1706 59.9443 70.3408 60.1037ZM1041.63 44.4216C1036.84 45.3006 1027.99 46.7801 1020.05 48.3578C1013.79 49.5472 1005.14 51.4561 1002.81 52.4757C1007.62 51.2214 1014.99 49.9106 1020.18 49.0212C1031.86 46.9218 1043.82 45.1404 1041.63 44.4216ZM339.482 517.569C327.68 524.358 309.185 538.508 315.107 536.794C335.467 521.263 311.448 537.079 339.482 517.569ZM1232.63 147.029C1236.94 139.587 1238.74 130.05 1238.11 131.202C1232.07 142.733 1227.85 153.738 1232.63 147.029ZM713.973 236.694C713.005 236.287 695.015 250.161 697.744 248.858C698.785 248.324 714.532 237.186 713.973 236.694ZM1125.22 554.147C1115.28 557.652 1144.28 543.916 1153.38 540.962C1158.14 540.366 1126.41 553.711 1125.22 554.147ZM1114 316.541C1114.38 318.295 1136.73 289.2 1126.83 299.794C1124.37 302.468 1113.9 315.976 1114 316.541ZM863.09 559.781C868.459 554.459 857.989 561.09 851.99 569.3C845.375 577.82 838.928 593.006 844.479 583.74C844.876 583.1 849.287 574.941 853.448 569.758C857.451 564.522 862.507 560.377 863.09 559.781ZM806.061 682.432C807.07 680.357 810.54 682.301 806.65 691.905C806.125 693.203 806.356 686.675 805.863 687.706C805.707 687.99 804.092 693.594 803.259 700.118C802.36 706.564 802.274 713.796 802.338 714.427C802.471 715.788 803.894 714.175 804.072 715.543C804.196 716.649 803.822 724.345 804.497 733.598C804.502 734.588 804.576 735.09 804.27 734.034C803.86 732.984 803.444 730.078 799.416 723.809C796.466 719.011 788.945 711.703 781.421 708.414C773.936 705.009 769.716 704.937 769.922 704.854C767.89 704.527 765.072 704.508 764.069 704.566C762.914 704.615 762.68 704.629 762.651 704.57C762.675 704.452 763.448 704.144 764.008 703.865C765.215 703.289 765.792 702.881 766.304 702.73C769.673 701.749 777.384 700.067 786.974 696.459C807.088 688.903 832.339 678.351 857.899 667.674C893.606 652.711 930.029 636.993 954.045 628.089C921.164 641.499 890.343 655.863 858.675 669.537C855.603 670.858 852.673 672.114 849.693 673.381C858.976 666.907 798.444 696.463 833.774 678.911C829.67 680.753 817.746 685.836 802.171 692.094C794.402 695.205 785.666 698.636 777.101 701.702C772.889 703.209 768.558 704.657 765.475 705.527C763.978 705.959 762.72 706.222 762.98 706.177C763.121 706.162 763.713 706.061 765.014 706.008C766.247 705.943 768.445 706.043 769.739 706.236C768.913 706.054 780.786 707.618 789.746 715.228C798.509 722.585 800.65 728.669 801.792 731.196C802.845 733.927 802.884 734.68 802.94 734.866C802.962 735.019 802.868 734.518 802.788 733.78C799.009 703.594 804.804 685.419 806.053 682.458C806.056 682.45 806.059 682.441 806.061 682.432ZM173.206 639.191C179.224 633.052 151.285 654.137 140.706 663.449C138.533 665.349 137.073 666.764 136.665 667.436C137.587 666.793 139.163 665.627 141.194 664.097C151.103 656.63 172.668 639.779 173.206 639.191ZM362.226 492.028C365.924 488.911 367.746 483.781 388.871 469.774C388.889 469.76 388.908 469.746 388.926 469.732C395.095 465.642 388.81 471.291 390.047 470.685C390.497 470.479 409.835 457.784 394.668 469.507C371.589 487.35 391.153 469.36 378.673 478.72C377.136 479.875 354.595 498.891 356.165 498.154C356.328 498.084 363.226 492.456 364.489 491.689C369.225 488.819 367.647 491.18 368.294 490.749C370.367 489.328 406.688 459.973 412.918 457.029C414.961 456.049 354.471 502.91 351.942 504.528C350.352 505.542 349.42 502.989 347.713 503.955C346.842 504.451 322.901 523.715 319.505 525.975C318.534 526.621 317.781 527.096 317.223 527.439C321.409 525.291 299.18 541.975 299.278 540.765C299.479 540.166 314.881 528.815 315.471 528.448C315.727 528.287 315.958 528.159 316.168 528.032C312.455 529.602 364.282 490.598 352.221 497.861C366.797 485.878 351.361 501.189 362.226 492.028ZM433.538 436.318C432.149 437.705 430.761 439.092 429.372 440.48C455.304 420.123 486.498 398.307 516.86 375.49C524.553 369.712 514.699 375.021 525.054 367.816C533.408 362.001 543.259 356.547 539.08 360.116C538.071 360.981 520.958 372.565 512.793 378.829C488.627 397.369 495.653 393.887 494.249 394.989C492.695 396.208 476.787 406.905 468.445 413.235C447.497 429.137 438.427 437.063 409.027 457.758C425.015 444.538 414.726 449.713 433.538 436.318ZM1014.68 436.25C1014.47 437.838 997.969 453.411 992.132 459.186C992.443 457.688 1009.12 442.27 1014.68 436.25ZM324.965 307.745C328.084 301.111 296.499 345.655 305.747 334.56C307.587 332.68 321.364 313.589 324.965 307.745ZM388.938 161.883C394.634 158.226 370.374 170.572 370.996 171.568C371.203 171.858 388.194 162.341 388.938 161.883ZM776.19 182.259C777.223 181.439 792.108 170.965 792.749 170.597C803.384 164.753 754.3 199.563 776.19 182.259ZM715.603 129.841C715.213 127.881 714.788 126.097 714.376 124.551C712.934 119.167 711.56 116.047 711.65 116.498C711.676 116.845 712.885 120.416 713.844 124.681C719.435 143.995 713.82 176.038 710.33 184.851C709.301 188.173 709.215 188.842 710.733 184.985C711.145 183.911 711.667 182.48 712.277 180.608C712.57 179.687 715.776 169.23 716.761 157.31C718.043 145.651 716.06 131.42 715.603 129.841ZM660.638 260.4C664.347 256.193 681.737 236.049 681.695 235.158C681.363 234.676 661.574 257.59 660.638 260.4ZM1234.69 154.813C1237.55 153.675 1218.03 183.357 1212.02 192.728C1209.15 194.102 1228.17 166.995 1234.69 154.813ZM1013.27 40.6026C1015.18 40.2193 1016.87 39.8859 1018.36 39.5832C1084.82 26.6293 1114.05 27.9656 1110.73 28.2106C1107.49 29.055 1072.66 30.6989 1018.55 40.5755C1014.8 41.2601 1009.62 42.1281 1003.56 43.4452C1002.92 42.5242 1003.4 42.6142 1013.27 40.6026ZM1239.06 63.4222C1227.15 49.3025 1200.57 32.8608 1176.5 29.9816C1176.02 29.9095 1175.55 29.841 1175.08 29.7757C1175.34 29.7488 1175.84 29.7595 1176.53 29.8093C1187.91 29.6477 1223.98 42.9472 1239.06 63.4222ZM359.195 252.492C356.498 261.649 334.234 297.187 337.387 290.391C338.559 288.97 360.352 249.255 359.195 252.492ZM784.702 174.26C780.984 174.941 814.961 151.024 817.816 149.446C829.032 143.102 787.153 171.971 784.702 174.26ZM1118.99 322.372C1115.28 328.961 1101.35 344.804 1092.64 355.107C1095.78 349.722 1111.7 331.328 1118.99 322.372ZM1180.69 243.51C1180.21 244.387 1168.56 260.406 1167.97 261.024C1157.5 273.484 1190.44 227.994 1180.69 243.51ZM-2.01341 79.9444C-0.95261 79.2287 13.7897 72.2773 13.621 72.4426C18.7469 70.6995 13.7739 73.2884 5.98369 76.9592C-1.65214 80.5615 -10.2995 84.9611 -2.01341 79.9444Z" fill="#4B63BF" fill-opacity="0.72"/>
</svg>
